<?xml version="1.0" encoding="utf-8"?>
<!-- Generator: Adobe Illustrator 24.0.2, SVG Export Plug-In . SVG Version: 6.00 Build 0)  -->
<svg version="1.1" id="Capa_1" xmlns="http://www.w3.org/2000/svg" xmlns:xlink="http://www.w3.org/1999/xlink" x="0px" y="0px"
	 viewBox="0 0 1080 1080" style="enable-background:new 0 0 1080 1080;" xml:space="preserve">
<style type="text/css">
	.st0{fill:#070203;}
	.st1{fill:#BB2925;}
	.st2{fill:#FAB12B;}
	.st3{fill:#F3B32F;}
	.st4{fill:#F9F9F9;}
	.st5{fill:#F33C3B;}
	.st6{fill:#C3670F;}
	.st7{fill:#F1F0DC;}
	.st8{fill:#D0780B;}
	.st9{fill:#8D190C;}
	.st10{fill:#AD4C0F;}
	.st11{fill:#CC4318;}
	.st12{fill:#DD6016;}
	.st13{fill:#FAFBF8;}
	.st14{fill:#F7F9DE;}
</style>
<g>
	<g>
		<path class="st0" d="M39.3,365.4c6.3-10.8,13.9-20.5,23.7-28.5c15.3-12.5,32.7-20.5,51.7-25.3c12.1-3,24.4-3.6,36.8-2.3
			c5.5,0.6,9.7-1,13.5-4.9c7.1-7.1,14-14.4,22-20.5c2.6-2,3.5-4.7,3.9-7.7c1.7-11.7,3.3-23.5,5-35.2c1.1-4.8,2.2-9.7,3.4-14.5
			c7.4-25.3,17.3-49.6,32.9-71.1c1.4-1,2.4-2.2,2.7-3.9c9.3-14.8,21.4-27.3,34.1-39.1c11.5-10.7,23.8-20.5,37-29.2
			c15.3-8.2,30.2-17,46-24.2c2.2-1,4.3-1.9,6.5-2.9c3.4-1.3,6.8-2.7,10.2-4c4.5-1.4,9.1-2.5,13.2-5c11.5-3,23-6,34.5-9.1
			c1.3-0.2,2.7-0.5,4-0.8c2.7-0.5,5.4-1,8.1-1.5c17.8-1.8,35.6-4,53.5-3.6c34.4,0.7,67.9,6.6,100.2,18.8c16.4,6.2,32,13.8,47,22.5
			c13,7.5,24.2,18,36.3,27.2c1.7,1.5,3.3,3.1,5,4.6c12.7,13.3,24.6,27.1,35,42.2c0,1.2,0.6,2.1,1.7,2.6
			c5.5,10.2,11.1,20.3,16.6,30.5c1.1,2,2.3,4.4,4.5,5c12.4,3.7,23.6,10.8,36.4,13.5c1.2,0.5,2.2,0.3,3.2-0.4c4.5-1.4,8.6-3.7,12.6-6
			c1.7-0.5,3.4-1.1,5.2-1.7c32.4-9.5,63.7-7.5,93.9,8.2c1.4,0.8,2.9,1.6,4.3,2.4c9.9,6.9,19.6,14.1,27.7,23.2c1.8,2,3.5,4,5.3,5.9
			c13.6,19.2,22.7,40.2,26.5,63.5c-0.3,2,0,3.9,1,5.6c0.3,1.7,0.7,3.3,1,5c-1.6,0.6-1.7,2-1.7,3.4c0.3,8.9-0.8,17.7-2,26.5
			c-2.6,18.5-9.5,35.6-18.4,51.7C916.8,398,909,409,899.9,419c-1.5,1.6-2.8,3.5-1.5,5.5c5.3,7.6,6,20,19.7,18.8
			c1.4,0.5,2.8,1,4.2,1.5c13,6.6,25.1,14.5,33.9,26.4c5.7,7.7,11.9,15,14.6,24.8c2.5,9.1,2.8,20.3,15,23.5c1.6,1.1,3.2,2.3,4.8,3.4
			c3.3,3.1,6.6,6.2,9.9,9.3c1,1.1,1.9,2.2,2.9,3.3c5.6,8.5,10.9,17,14.4,26.7c2.1,5.7,1.3,13.3,9.9,15.7c5.5,1.5,10.4,5.3,15.6,8.1
			c3.5,3.1,7,6.1,10.5,9.2c0.8,1.1,1.5,2.3,2.3,3.3c12.4,15,18.6,32.1,19.1,51.7c0.2,8.6-2.4,16.8-2.2,25.3
			c-0.3,0.9-0.2,1.7,0.6,2.3c-3.2,1.3-3.4,4.5-4.6,7.1c-10.5,23.7-27.1,40.8-53.2,46.4c-5.7,1.2-9.3,3.5-12.2,8.4
			c-19,30.6-43.1,57.1-68.4,82.4c-26.3,26.3-54.8,50-85.4,71.3c-23.2,16.1-47.2,31.1-72.2,44.1c-22.8,11.9-46.4,22.3-70.6,31.3
			c-27.4,10.2-55.4,18.8-83.9,24.9c-40.7,8.8-81.9,13.6-123.6,14.4c-41.9,0.8-83.4-2.3-124.5-9.4c-46.8-8-92.5-20.8-136.6-38.8
			c-41.1-16.8-81.2-35.8-116.9-62.7c-3.3-2.5-6.4-2.8-10.2-2c-18.8,3.9-36,0-52-10.4c-8.5-5.5-15.1-13.1-22.8-19.3
			c-2.1-3.8-4.2-7.6-6.3-11.4c-18.6-33.6-12.8-73.1,15-99.7c2.9-2.7,3.3-5.4,3-9c-2-24,3.6-45.8,19.4-64.4c2.4-2.9,2.5-5.5,1.9-8.8
			c-2.2-12.1-1-24.1,2.3-35.9c4.9-17.1,14.3-31.5,26.7-44c6.3-3.8,11.5-6.6,11.9-16.5c0.4-9.7-2.7-13.7-10-18
			c-17.3-10.3-32.8-22.8-46-38c-14.8-17-25.1-36.2-29.1-58.5c-4.7-17.2-4.3-34.6-2.1-52.1c2.6-14,5.8-27.8,14-39.8
			C38.2,368.1,39.1,367,39.3,365.4z M476.3,494.4c-0.5-1.2-1.5-1.3-2.7-1.1c-2.4-2.5-5.1-1.4-7.7-0.7c-18.1,4.9-36.2,9.5-54.1,15
			c-31.1,9.4-61.4,21.1-89.6,37.3c-42.8,24.6-77.6,58.1-105.9,98.5c-28.9,41.2-50.6,85.6-61.4,134.9c-0.6,2.7-1.9,4.5-3.8,6.2
			c-3.5,1.6-7,3.2-10.4,4.7c-8.3,2.6-16.7,4.8-25.5,3.4c-7.3-1.2-14.2-3.5-21-6.2c-8.7-3.4-16-1.4-22.4,5.1
			c-13.8,13.9-12.3,37.6,3.3,50.4l0-0.2c0.4,0.4,0.8,0.8,1.2,1.2c0.4,2.1,2.3,2.7,3.8,3.6c12,6.5,24.4,7.5,37,2.3
			c5.1-2.1,9.3-2.3,13.9,1.3c5.4,4.1,11.5,7.3,17.2,11.1c72.1,47.1,151,77.3,235.7,92.1c74.8,13.1,149.4,11.7,224-3.6
			c45.8-9.4,89.3-24.7,131.3-44.6c55.6-26.3,105-61.5,149.7-103.6c33.8-31.9,64-66.9,91.2-104.6c3.5-4.9,7.3-6.6,13.1-6.5
			c16.3,0.4,33.8-8.5,38.9-25.4c4.7-16,0.1-31.6-12.1-41.1c-10.2-7.9-19.9-7.7-29.7,0.7c-3.9,3.4-7.3,7.8-11.7,10.1
			c-10.3,5.4-21.2,9.5-33.2,8.5c-2.4-0.3-4.7-0.7-7.1-1c-3-0.8-4.9-2.6-6.8-5.1c-6.6-9-13.5-17.7-20.1-26.7c-3-4.1-6.6-5.7-11.6-6
			c-23.7-1.3-47-5.4-70.2-10c-15.6-3.1-31-7.2-46.5-10.9c-2.5-2.2-6-2.1-8.9-3.4c-5.4-2.5-7.6-0.9-9.4,4.9
			c-14.4,46.5-44.5,76-94,81.7c-23.2,2.7-44.8-3.3-63.1-19c-7.5-6.4-13.4-14.1-19.6-21.6c-2.8-5.2-5.2-10.6-7.2-16.2
			c-6.8-19.1-7.1-38.7-4.5-58.5c1.2-1.7,1.7-3.6,1.1-5.7c0,0,0-0.4,0-0.4c3.3-10,3.2-9.6-6.3-12.5c-12.7-3.8-25.2-8-37.6-12.5
			c-17.3-6.3-33.9-14.3-50.7-21.8l-0.1,0c-0.5-0.4-1.1-0.7-1.6-1.1l0,0c-1.2-1.7-2.9-2.5-4.9-2.9L476.3,494.4z M958.6,615.7
			c0.4-0.3,0.7-0.7,1.1-1c3.4-2.7,7-5.2,9.7-8.7c4.6-4.7,11.8-6.9,14.2-13.9c-1.6-13.8-7.8-24.9-19.1-32.9
			c-11.7-8.3-13.7-8-23.3,2.7c-2.4,0.7-4.4,2-5.7,4.2c-3.1,3-6.1,5.9-9.2,8.9c-7,4.8-6.8,4.7-1.7,11.1c7.7,9.6,16.3,18.6,23.1,29
			c4.5,6.9,4.4,6.9,10.6,0.9L958.6,615.7z M138.1,718.6c-3.1-2-6.4-3.8-10.2-3.7c-2.5-2-4.8-4.3-8.3-3.9c-1.6-0.9-3.3-1.6-4.7-2.8
			c-5.3-4.6-9.1-2.4-12.9,2.4c-8.5,10.7-12.3,23-13.3,36.5c-0.4,6.2,1.1,10.2,8.1,10c3.7,2.7,8,3.8,12.4,4.9
			c4.5,1.5,9.1,2.9,13.6,4.4c7,4,7.2,3.8,9.3-3.7c3.4-11.8,6.2-23.7,11.1-35C145.4,722.7,143.9,719.3,138.1,718.6z M777,459.5
			c1-3.5,3.5-6.5,3.7-10.4c2.8-5.6,5-11.4,5.7-17.7c0.7-3.7,5.9-7.7-0.6-10.8c-15.8-7.7-32-14.2-49.2-18.1
			c-10.3-2.3-15.2,2-16.5,12.6c-1.7,5.2-1.7,10.6-1.6,16c-0.4,2.8-0.8,5.6-1.3,8.5c-3.1,13.4-3.1,13.5,10,17.5
			c11.9,3.6,23.9,6.8,35.8,10.7c10.5,3.4,10.4,3.7,14-6.8C777.2,460.5,777,460,777,459.5z M800,473.2c-7.6,10.6-6.5,8.3,3.1,13.6
			c10.5,5.8,21.2,11.2,31.4,17.5c10.4,6.4,10.1,6.7,15.5-3.5c3-3.5,6.1-6.8,7.4-11.4c4.3-5.7,9.1-11.2,11.3-18.2
			c2.9-3.7,1.7-6.3-1.8-9c-14-10.3-29.5-17.9-45.3-25c-8.2-3.7-10.1-2.8-13,5.6c-0.4,1.3-0.7,2.6-1.1,4c-1.9,4.8-4,9.5-3.9,14.8
			C801.2,465.1,800.6,469.2,800,473.2z M241.2,558c5.3,8.7,6.3,8.9,14.1,2c10.1-8.8,21-16.5,31.9-24.3c7.3-5.2,7.8-7.3,2-14.6
			c-0.5-0.9-1.1-1.9-1.6-2.8c-3.4-7.5-6.8-15.1-10.2-22.6c-5.8-10.3-13.2-12.4-23.2-5.7c-12.4,8.4-23,18.7-33.2,29.6
			c-6.6,7-6.4,7.1,0.1,14.2c2.6,5.7,7.5,9.6,11.4,14.3C235,551.9,237.7,555.3,241.2,558z M869.5,516.7c-1.5,2-3.1,3.9-4.5,5.9
			c-1.1,1.7-2.1,3.6,0,5.5c11.7,10.3,23.4,20.6,35.2,30.9c3.2,2.8,5.7,2.1,7.4-1.8c4.4-3.5,9.1-6.7,11.8-11.9
			c6-4.4,11.9-8.9,15.7-15.5c5-3.9,1.2-8.1-0.1-11.7c-5.6-15.3-18.4-24-31.4-32.3c-9.5-6-10.1-5.7-14.8,4.6
			c-4.6,5.7-9.8,10.9-12.5,17.9C874.1,511.2,871.8,514,869.5,516.7z M184.9,622.2c8,6.6,8.3,6.9,13.9-1.3
			c7-10.2,15.2-19.2,23.2-28.5c7.3-8.4,7.5-8.2-0.5-16c-2-3.6-4.1-7.1-7.3-9.8c-2.2-4.3-4.9-8.1-8.6-11.2
			c-8.5-11.3-10.3-11.5-20.5-1.9c-10.3,9.7-19.3,20.6-27.4,32.3c-7.4,10.7-7.3,10.7,3.6,18.2c3.9,3.9,8.1,7.3,13.1,9.7
			C177,617.5,181.6,619,184.9,622.2z M171.3,644.4c-0.3-0.3-0.7-0.6-1-0.8c-3.1-2.5-5.9-5.5-9.9-6.7c-4.6-4.7-10.1-8.2-15.9-11.4
			c-2.1-1.7-4.2-3.4-6.3-5.1c-1.7-1.4-3.3-1.3-4.7,0.4c-11.9,14.5-23.6,29.1-23.4,49.4c0,5,1.6,8.3,6.3,10c5,3.2,10.5,5.4,15.9,7.6
			c5.3,2.7,10.7,5.3,16.5,6.8c3.9,3.7,6.5,3.6,9.1-1.9c5.9-12.5,12.3-24.8,18.6-37.1c3.6-7,3.5-7.4-4.3-10.1
			C171.9,645.1,171.6,644.7,171.3,644.4z M344.5,441.8c-2.8,1.3-5.6,2.6-8.5,3.8c-14.3,5.4-28.4,11.1-41.9,18.3
			c-2.2,1.2-4.6,2.4-4.3,5.5c0.6,7.5,8.2,12.2,15.3,9.4c1.5-0.6,2.9-1.4,4.4-2c16.7-5.9,33.1-12.7,50.5-16.8
			c2.2-0.5,5.6-1.7,6.6,1.2c0.7,2.2-2,3.6-4.1,4.7c-15.5,8.1-31,16.2-46.5,24.4c-10.5,5.5-10.4,5.5-4.5,15.5
			c3.4,11,4.3,11.9,11.5,8.6c16.9-7.9,34.5-14.2,51.9-20.7c31.7-11.9,64.3-20.4,97.2-27.8c23.4-5.2,47.1-9.4,70.9-12.5
			c25.5-3.3,51.2-5.6,76.9-6.2c20.4-0.4,40.9-0.2,61.2,1.4c9.9,0.8,11.7-0.4,10.9-10.5c2.3-12.2,2.3-12.3-9.9-13.9
			c-9-1.2-18.1-2-27.2-3c-7.9-0.9-15.8-1.9-23.7-3c-1.9-0.3-4.5-0.9-4.3-3.5c0.2-2.4,2.6-2.9,4.6-3.2c5-0.6,10-1.5,15-1.6
			c14.8-0.4,29.6-0.8,44.5-0.6c8.2,0.1,8-5.2,8.8-10.8c0.9-6.1-3.1-7.4-7.2-7.8c-14.7-1.5-29.4-2.3-44.2-1.8
			c-8.1-0.4-16.1-1-24.1-1.2c-32-1-63.9,1.2-95.6,5.5C465.3,402.2,403.5,416.6,344.5,441.8z M549.2,495.2L549.2,495.2
			c11.9,6.7,25.1,10.1,38.1,14.2c1.6,0.5,2.6-0.5,3.5-1.5c7.4-7.6,16.7-8.8,26.6-7.9c19.4,1.8,38.3,5.9,57.3,10.2
			c26.7,6,53.3,12.9,79.2,21.8c8.5,2.9,15,7.9,16.5,17.4c0.3,2,1,3.3,3.2,3.8c19.1,4.7,37.9,10.3,57.5,12.7
			c14.8,3.5,29.7,6.6,46.4,8.2c-2.5-2.7-3.6-4.1-4.9-5.3c-33.5-32.2-72-56.7-115.4-73.5c-25.4-9.9-51.3-17.7-78.6-20.5
			c-32.6-3.4-65.2-2.9-97.9-0.3c-20.8,1.6-41.6,3.6-63.8,7.9c10.9,5.5,20.4,10,30.7,12.9C548.2,495.2,548.7,495.2,549.2,495.2z
			 M888,267.9c-1.2-1.3-2.5-2.5-3.5-4c-6.9-10.9-16.3-19.1-27.7-25.1c-21.8-11.6-43.9-10-66.3-1.8c-25.1,9.1-49.3,7.6-72.1-7.4
			c-16-10.5-29.9-21.4-39-40.1c-23.5-48.3-64.2-79.3-113.9-97.3c-89.1-32.3-172.6-18-247.5,38.4c-51.8,38.9-82.8,91.3-84.7,158.1
			c-0.1,2.3-0.4,4.5-1.8,6.4c-6.5,8.8-12.8,17.9-19.3,26.6c-9.2,12.4-20.8,21.6-35.5,26.9c-12.1,4.4-24.6,4.6-37.2,5
			C81,356,51.3,419.4,72,463.6c9.5,25.1,29,40.8,50.9,54.3c10.2,6.9,21.4,12.1,32.8,16.6c2.9,1.2,6.2,1.7,9.3,2
			c5.5,0.5,8.4-3.2,10.2-7.6c1.9-4.6-1.7-6.3-4.9-8.2c-8-4.8-16-9.7-23.8-14.8c-27.6-18.1-50.3-40.2-57.8-74
			c0.5-13.4,5.7-24.7,15.8-33.4c11.3-9.8,25.2-12.1,39.5-13.5c16.8-1.6,34-2.3,49.4-10.3c38.7-20.2,63.1-51.1,68.4-95.4
			c5.2-43.4,24.5-79.6,55.9-109.4c44.9-42.6,99.3-63.6,160.5-63.2c80.4,0.4,144.4,32,182.8,106.2c9.2,17.8,23.1,30.9,40,41.3
			c28.7,17.5,59,23.7,91.9,14.5c9.2-2.6,18.6-5.1,28-6.7c23.3-3.8,42.6,6.7,52.6,27.9c4.2,24.4-2.3,46.4-14.3,67.5
			c-9.1,16-20.8,30-32.2,44.2c-1.9,2.4-4.7,4.8-2.6,8.4c2.3,3.9,5.8,5.7,10.3,5.6c2.9-0.1,5.4-1.3,7.5-3c11.4-9.4,22-19.7,30.6-31.8
			c10.7-14.9,19.5-30.6,24.6-48.4C903.9,309.3,900.3,288.1,888,267.9z M425.3,314.8c-0.1,0-0.2,0-0.3,0c0.8,4.3,1.5,8.6,2.3,12.8
			c3.4,18.5,18.6,31,37.2,30.6c11.3-0.3,22.3-2.3,32.9-6c16.8-5.9,27-23.2,24-40.7c-1.7-9.7-3.5-19.4-5.5-29
			c-0.7-3.4-0.5-5.8,2.4-8.4c6.6-6,10.4-13.8,12.1-22.6c4.2-20.8,4.5-41.8,0.7-62.6c-3.4-18.9-14.7-32.1-32.6-38.4
			c-37.5-13.2-72.3-6.4-103.5,17.3c-17.8,13.5-23.5,32.6-18.5,54.5c3.4,15,8.5,29.4,15.6,43c4.6,8.7,9.3,18.6,18.3,22.5
			c11,4.8,13.5,12.7,14.1,22.8C424.7,312.1,425.1,313.4,425.3,314.8z M400,317.4c-10.6,7.6-21.4,14.8-31.6,22.7
			c-4.8,3.7-7.4,4.1-12.1-0.6c-12-11.9-32-8.9-40.7,5.4c-8.2,13.5-1.5,29.8,14,32.9c3.9,0.8,4.4,1.8,3.8,5.6
			c-2.1,14,7.4,25.1,21.5,25.9c19.3,1,33-16.7,26.8-35.4c-1.6-5-0.7-7.2,3.3-9.8c5.6-3.5,10.7-7.7,16.2-11.4
			c3.1-2.1,4.5-4.5,3.6-8.5C403.1,335.5,401.7,326.7,400,317.4z M543.5,291.8c0.1,1.5,0,1.9,0.1,2.4c1.7,8,3.7,16,5.1,24.1
			c0.6,3.8,2.4,5.3,6,6.1c7.1,1.6,14.1,3.9,21.2,5.5c4.2,1,5.7,2.5,5.4,7.3c-0.8,9.9,6.5,20.2,16,24.2c10,4.2,22.4,2.3,29.3-5.2
			c7.4-8,7.8-17.2,3-26.6c-1.5-3-1.4-4.4,1.8-6.4c9.9-6,12.7-17,7.6-27.3c-4.6-9.4-12.7-13.6-22.8-13.6c-11.7,0-20.8,5.3-25.4,16.4
			c-1.8,4.3-3.3,5.2-7.8,3.9C570.2,298.7,557.2,295.5,543.5,291.8z M378.9,289.7c-6.4-12.1-11.8-22.6-17.4-33
			c-0.8-1.6-2.1-3.8-3.4-4c-7.8-1.2-7.5-6.5-7.1-12.3c0.1-1.8-0.3-3.6-0.8-5.4c-2.6-10.3-9.2-17-19.3-19.2
			c-10-2.1-19.1,0.4-25.8,8.9c-6.4,8.2-4.9,16.7-0.1,24.9c2.1,3.6,0.6,4.3-2.5,5.6c-10.4,4.4-14.4,13.9-10.8,24.8
			c3.1,9.4,11.4,16,21.5,16.5c11.2,0.5,21.3-2.3,26.4-13.2c2.3-4.9,4.3-4.9,8.6-3.4C357.8,283.2,367.7,286.1,378.9,289.7z
			 M553.3,257.9c9.1-7.1,17.4-13.5,25.6-20.1c3.1-2.5,4.9-3.2,8.4,0.1c11.2,10.7,30.9,8.2,39.8-4.6c9.5-13.7,3.6-32.1-11.5-33.9
			c-6.5-0.8-6.4-3.2-6-8.3c1.1-15.3-10.4-25.6-25.6-23.3c-17.1,2.6-27,18.7-21.3,35.1c1.6,4.7,4.4,9.1-2.3,12.3
			c-2.2,1-2.2,3.8-2.5,6.1C556.3,233.2,554.9,244.9,553.3,257.9z"/>
		<path class="st1" d="M69.2,931c-20.4-13.5-31.1-32.7-33.2-57c-0.3-3-0.6-5.9,0.3-8.8c7.8,6.3,14.4,13.8,22.8,19.3
			c16,10.5,33.2,14.3,52,10.4c3.8-0.8,6.9-0.5,10.2,2c35.7,26.9,75.8,45.9,116.9,62.7c44,18,89.7,30.7,136.6,38.8
			c41.1,7.1,82.7,10.2,124.5,9.4c41.7-0.8,82.9-5.7,123.6-14.4c28.6-6.1,56.5-14.7,83.9-24.9c24.2-9,47.8-19.4,70.6-31.3
			c25-13,49-28,72.2-44.1c30.6-21.2,59.2-45,85.4-71.3c25.3-25.3,49.4-51.8,68.4-82.4c3-4.8,6.5-7.1,12.2-8.4
			c26.1-5.6,42.7-22.7,53.2-46.4c1.1-2.6,1.4-5.8,4.6-7.1c1.7,5.3,3.3,10.7,5,16c0.2,1.3,0.5,2.7,0.7,4c0.2,6.4,0.3,12.9,0.5,19.3
			c-0.8,2.4-1.6,4.8-1.1,7.4c-0.3,0.4-0.4,0.8-0.2,1.2c-1.5,1.7-1.7,3.7-1.7,5.8l0-0.1c-1.3,2.7-2.5,5.3-3.8,8
			c-0.3,0.5-0.5,1.1-0.8,1.6c-0.4,0.6-0.8,1.3-1.3,1.9c-5.1,7.2-11.5,13.4-18,19.3c-0.4,0-0.7,0.2-0.8,0.6c-2.3,0.7-4.3,2.1-6,3.9
			c-1,0.5-2,0.9-3,1.4c-0.3,0.2-0.7,0.4-1,0.6l-0.1,0.1c-6,1.9-11.9,4.9-18.1,5.5c-6.5,0.7-9.7,3.7-11.6,9.3l0.1-0.1
			c-0.4,0.6-0.8,1.1-1.2,1.7l0-0.1c-2,1.3-3.4,3.1-4.2,5.3l-0.1,0.1c-1.5,2.1-3.1,4.1-4.6,6.2c-1.4,0.6-2.1,1.6-2.3,3.1
			c-1.3,1.7-2.6,3.5-3.9,5.2l-0.3,0.5c-4.9,5.5-9.8,11-13.8,17.2c-0.4,0.4-0.9,0.9-1.3,1.3c-5.4,6.1-10.8,12.3-16.2,18.4l0,0
			c-2.8,1.8-5,4.2-6.7,7.1c-0.5,0.5-1,1-1.5,1.5c-4.6,3.3-8.4,7.5-11.9,11.8l0,0c-5.5,4.2-10.5,8.8-14.9,14.1
			c-1.1,1.5-3.5,1.4-4,3.5c-3,1.7-5.5,3.9-7.4,6.7c-7.1,6-14.3,12.1-21.4,18.2l-0.1,0.1c-9.5,7.2-18.9,14.4-28.4,21.6l0.1-0.1
			c-4.2,1.9-7.9,4.6-11.2,7.8c-0.4,0.3-0.8,0.6-1.1,0.9c-0.4,0.3-0.8,0.6-1.2,0.9h0c-21.4,12.7-42.9,25.4-64.3,38.1
			c-0.5-0.1-0.8,0.1-1.1,0.5c-1.2,0-2.2,0.3-2.7,1.5c-8.1,4-16.2,8-24.4,12c-1.2,0.6-2.4,1.2-3.6,1.9c-9.1,3.9-18.2,7.7-27.3,11.6
			c-0.9,0.3-1.8,0.6-2.6,0.9c-1.5,0.1-3,0.2-3.9,1.7l0,0c-1.8,0.4-3.6,0.7-5.3,1.4c-46.7,17.6-94.7,29.8-144.3,35.9
			c-9.9,1.2-19.9,2.5-29.8,3.8c-0.9,0.1-1.8,0.2-2.7,0.3c-21.7,0.8-43.4,1.6-65.2,2.3c-0.5,0-1,0-1.4,0c-11.5-0.6-23-1.3-34.5-1.9
			c-0.5,0-1.1,0-1.6,0c-6.7-1.6-13.5-1.9-20.3-1.9l-0.4-0.3l-0.4,0.1c-7.2-1.6-14.5-2.6-21.9-2.9v0c-0.8-1.1-1.9-0.8-3-0.5
			c-0.7,0-1.5-0.1-2.2-0.2c-22.4-4.3-44.8-8.4-66.9-14c-40.5-10.2-79.9-23.9-118-41c-0.4-0.1-0.9-0.2-1.3-0.3
			c-10.8-5.3-21.6-10.7-32.3-16c-0.2-0.4-0.6-0.5-1-0.4c-12.6-7.5-25.2-15.1-37.9-22.6c-0.4-0.3-0.8-0.7-1.2-1
			c-4.6-2.6-7.6-8.8-13.8-7.4c-17.2,3.7-33.4,1-49.1-6.2C70,931.5,69.6,931.3,69.2,931z"/>
		<path class="st1" d="M722.5,134.6c0.3-0.9,0.7-1.7,1-2.6c3.3-5.6,6.7-11.1,8.7-17.3c0.4-0.2,0.6-0.6,0.6-1.1c3-4.4,5.6-9.1,7-14.2
			c3.5-7.1,7-14.2,10.5-21.3c0.3-0.3,0.6-0.7,0.9-1c0.2-0.3,0.4-0.6,0.7-0.9l0.2-0.3c9.9-6.7,17.4-6.7,23.9,0.2
			c5.3,5.6,4.6,12,2.6,18.6l-0.1,0c-2.4,4.9-4.8,9.9-7.1,14.8c0,0-0.2,0.4-0.2,0.4c-7,13.5-14,27.1-21,40.6l0.1-0.1
			c-0.4,0.6-0.8,1.1-1.2,1.7l0-0.1c-6.6,6.2-13.8,7.2-21.6,2.6l0,0c-4.1-4.9-5.9-10.6-6-16.9l0,0
			C721.9,136.5,722.2,135.5,722.5,134.6z"/>
		<path class="st2" d="M576.6,551.4c-2.6,19.8-2.3,39.4,4.5,58.5c2,5.6,4.4,11,7.2,16.2c1.8,8.1,7,14.2,12.2,20.2
			c22.4,25.6,50.3,36.8,84.2,32.1c24.1-3.4,44.5-14.3,61.5-31.5c14.5-14.6,23.9-32.4,26.7-52.8c0.8-6.2,1.9-8.1,7.7-6.6
			c0.7,1.8,2.4,2,3.9,2.5c25.4,8,51.3,14.2,77.4,19.2c17,3.3,33.6,6.4,45.7,20.3c3.7,4.3,7.9,8.2,11.6,12.5c3,3.5,5.9,5.2,10.5,2.4
			c2.4-1.4,5.6-1.5,8.5-2.2c2.4,0.3,4.7,0.7,7.1,1c0.2,1,0.3,0.6,3.3,1.2c15.4,2.7,29.1-1.5,41.9-10c2.8-1.8,5.3-4,8.8-5.1
			c10.6-3.4,17.8,2.1,24.6,8.9c-0.6,0.3-1.5,0.5-1.7,1c-3.8,11.3-11.7,17.4-23.4,18.6c-5.5,0.6-9.6,3.2-13.6,6.9
			c-5.9,5.6-10.7,12.3-17.3,17.1c-3.5-3.9-8.3-5.5-12.9-7.2c-18.5-6.7-22.7-5-31.8,12.8c-2.8,5.5-5.6,11-9.8,15.6
			c-6.8,7.4-11.7,6.3-14.6-2.8c-0.7-2.4-1.7-4.7-2.6-7c0.9-1.8,1.9-3.6,2.6-5.5c1.7-4.4,1.6-8.4-2.6-11.5c-3.6-2.7-7.7-3.6-11.5-1.4
			c-3.4,1.9-5.9,5.1-5.5,9.5c0.5,5.4,2.8,9.6,8.7,10.7c-4.1,5.4-7.8,11.3-13,15.6c-16.2,13.4-32.3,26.9-48.9,39.7
			c-31.7,24.5-66.1,44.5-102.4,61.5c-27.3,12.9-55.6,22.7-84.9,29.6c-18.2,4.3-36.8,6.9-55.3,10.2c-2.2,0.4-4.5,1.3-6.6-0.4
			c3.7-3.8,6.4-8.1,6.8-13.6c1.2-1.9,0.8-3.7-0.8-5.2c-0.3-0.9-0.6-1.8-0.9-2.7c0.6-2.6,1.3-5,4.4-6.6c-3.4-1.2-8.2,0-8.1-2.6
			c0.2-5.5-3.6-4.7-6.8-6.3c2.6-1.3,5.1-1.8,7.7-2.2c6.9-1.1,14.1-3.8,19.2-7.3c12.8-8.8-17.6-15.1-10.7-30.3
			c3.3-7.3,15.9-11,16.5-19.6c0.5-7.4,13.9-3.3,10-9.4c-5.3-8.3,4-23.4-3.2-15.1c-1.5,1.7-3.3,3.1-4.7,4.7
			c-5.1,5.7-11.9,9.8-15.8,16.6c-23.3,14.1-48.4,17.7-74.9,12.3c-8.8-1.8-16.7-6.1-24.7-9.9c-5.1-2.4,41.8,28.1,36.8,32.3
			c-5.1,4.2-37.3-21.4-36.3-15.1c0.9,5.8,3.9,10.7,7.7,15c15.2,17.3,13.3,25.3,35.8,28.5c3.6,3,7.8,4.6,12.3,3.1
			c6.3-2.1,12.1,0.6,18.8,0.4c-1.6,3.7-7.4,1.2-6.9,6l0,0c-9.3,2-12.2,9.2-5.6,23.3c0.5,0.4,1.1,0.8,1.6,1.2
			c0.4,2.2,0.8,4.4,1.2,6.6c-9.4,2-19.1,1.3-28.5,2.6c-22.6,3.3-45.4,3.3-68,3.2c-34.8-0.1-69.5-2.4-103.9-8.2
			c-36.6-6.2-73-13.5-107.8-27c1.4-0.8,2.8-1.5,4.1-2.4c6.8-4.7,9.4-11.9,7.6-20.3c-1.7-7.7-7.5-13.5-15.3-14.6
			c-8.2-1.1-14.8,1.8-19.3,8.7c-8.3,12.7,0.9,28,17.8,29.7c0.6,0.6,1.3,1.2,1.9,1.8c-7,5.3-9.7,14.2-16.2,19.9
			c-0.9,0.3-1.7,0.5-2.6,0.8c-22.8-9.6-45.6-19.3-68.4-28.8c-2.7-1.1-6.3-2.4-8.6-1.4c-8.5,3.4-18.1,2.8-26.2,7.2
			c-1.6,0.1-3,0-4.5-0.8c-7.6-4-15.4-6.7-24.2-3.9c-2.7,0.9-5.3-0.5-7.9-1.2c-5.9-1.5-9.3-7-15-8.6c2.7-12.9,13-19.7,25.3-16.8
			c20.2,4.8,29.4,3.6,44.6-5.7c3.5-1.6,7-3.2,10.5-4.7c2.9-0.2,5.8-0.9,8.7,0.1c5.5,1.9,8.2-0.4,9.8-5.9c3.4-12.2,8.1-24,14.2-35.1
			c5.3,0.8,6.6-2.7,7.3-6.8c4-7.3,11.9-11.9,15.2-19.3c4.2-9.6,12.9-13.1,20.3-18.6c1.5-1.1,2.8-2.3,4.2-3.5
			c23.4-19,46.8-38,70.4-56.8c15.8-12.5,31.3-25.3,46.4-38.7c3.3-3,6.3-5.6,1.8-10.6c-2.6-2.9-3-7.6-1.2-11.7
			c2.4-0.6,3.4,0.5,4.8,2.5c1.6,2.3,2.7,5.6,5.6,6.4c9.1,2.7,18.6-6.2,17.5-15.9c-0.5-4.5-2.1-6.7-7-5.3c-2.2,0.6-4.6,1.6-7.5,0.1
			c0.8-0.8,1.2-1.5,1.7-1.6c3.8-0.8,7.6-1.5,11.4-2.3c3.7-0.7,6.9-0.7,4.9,4.6c-0.7,1.9,0,2.8,1.7,2.4c2.9-0.7,5.3,0.8,7.9,1.2
			c6.8,1.1,10.3-2.3,10.1-9.1c-0.6-8.7-0.6-17,5.3-24.4c4.1-5.1-1.6-3-3.2-3.8c7.7-4,16.1-6,24.3-8.7c20.3-6.9,41-12.1,61.6-17.6
			c0.8,0.4,1.7,0.7,2.5,1.1c27.2,13.3,55.2,24.5,84.6,32.2c3.4,0.9,3.1,3.4,3.6,5.8c0,0,0,0.4,0,0.4
			C575.2,547.3,575.8,549.3,576.6,551.4z"/>
		<path class="st2" d="M773.5,655.2L773.5,655.2c-0.2-2.1-1.9-2.4-3.5-2.7c-5.6-1.1-11.9,2-14.1,7.4c-2.3,5.8-1.9,11.2,3.2,15.6
			c5,4.4,10.9,4.2,15.9,1c4.6-2.9,6.8-8,5.3-13.8C779.5,659.1,779.2,654.6,773.5,655.2z"/>
		<path class="st2" d="M285.2,723.1c3.4-1.6,4.2-4.4,3.9-7.9c-0.7-7.3-5.9-13.4-12.5-14.2c-6.6-0.8-13.2,2.8-15.7,8.6
			c-2.8,6.5-0.1,13.8,6.7,18.7C276.9,731.1,282,729.5,285.2,723.1z"/>
		<path class="st2" d="M828.6,630.1c-1.6,0.2-3.2,0.3-4.7,0.6c-8,1.4-12.8,5.8-14.1,12.8c-1.3,6.8,1.9,14.4,7.6,17.8
			c6,3.6,13,3,19.1-1.7c1.6-1.2,3-2.8,4.5-4.2c3,0,4.4-1,4.2-4.5c-0.2-3.9-1.6-7.5-2.2-11.2C841.7,631.5,837.2,628.6,828.6,630.1z"
			/>
		<path class="st2" d="M397.7,598.8c-21.7,3.9-36.7,25.4-32.6,47.1c4.1,21.8,26.7,37.4,48.5,33.3c21.6-4.1,36.4-25.6,32.5-47.4
			C442,609.5,420.4,594.8,397.7,598.8z"/>
		<path class="st2" d="M408,794.3c13.6-3.5,22.7-15.7,29.3-30.6c1.7-3.9,0-7.4-2.2-10.2c-7-9-15.9-15.6-26.9-18.9
			c-3.5-1-7.3-1.3-10.8,0.1c-14.4,5.6-25.3,15.1-31.8,29.3c-3.3,7.3-1.6,15.6,4.3,20.6C379.8,792.9,391.3,797.1,408,794.3z"/>
		<path class="st2" d="M703.8,741.8c8.3-1.8,16.6-7.2,23-15.3c7.8-9.9,7-16.9-2.6-26.4c-8.6-8.5-19.6-13.2-31.7-15
			c-8.3-1.3-15.2,0.8-20.4,7.9c-4.7,6.3-8,13.2-10.5,20.5c-1.2,3.6-1.2,7.1,0.9,10.5C668.5,734,690.5,744.2,703.8,741.8z"/>
		<path class="st2" d="M226.5,738.7c-9.3,1.6-15.4,10.2-13.9,19.5c1.5,9.5,9.9,15.8,19.2,14.2c9.5-1.6,16.5-10.8,14.9-19.7
			C245,743.1,236.1,737,226.5,738.7z"/>
		<path class="st2" d="M867.4,689c-1.8-9.5-10.2-15.2-19.7-13.6c-8.5,1.5-14.5,10.4-12.8,18.8c1.9,9.1,11,15.1,20.1,13.2
			C863.5,705.6,869,697.5,867.4,689z"/>
		<path class="st2" d="M553.1,703.8c9.1-1.8,15.2-10.5,13.4-19.1c-1.8-8.8-10-14.1-19.1-12.2c-8.5,1.7-14.4,10.6-12.6,19
			C536.7,700.3,544.4,705.5,553.1,703.8z"/>
		<path class="st2" d="M738.7,741.1c-8.2,1.5-12.8,7.7-11.3,15.7c1.5,8,7.8,12.8,15,11.5c7.5-1.3,13.4-9,12.1-15.7
			C753,744.3,746.6,739.6,738.7,741.1z"/>
		<path class="st2" d="M461.7,836c8.6-1.5,12.6-6.6,11.3-14.7c-1.2-7.5-7.8-12.3-15.2-11.1c-6.9,1.1-12,8.2-10.8,15
			C448.4,832.6,454.6,837.2,461.7,836z"/>
		<path class="st2" d="M342,796.2c-7,1.3-11.6,7.7-10.4,14.5c1.1,6.4,7.9,11,14.3,9.7c6.5-1.3,11.1-8.4,9.8-15.1
			C354.3,798.6,348.8,795,342,796.2z"/>
		<path class="st2" d="M782.2,704.3c-1-5.6-8.2-9.9-14.3-8.6c-6.6,1.4-10.9,7.9-9.6,14.4c1.3,6.3,7.7,10.8,13.7,9.6
			C778.8,718.3,783.5,711.3,782.2,704.3z"/>
		<path class="st2" d="M327.9,723.2c5.4-0.9,9.9-7.7,9.1-13.5c-1-6.6-6.8-10.5-13.6-9.2c-6.3,1.2-10.2,7.2-9.1,13.9
			C315.2,720,321.8,724.2,327.9,723.2z"/>
		<path class="st2" d="M688.3,794.7c-6.9,1.3-11.1,7.2-9.7,13.9c1.1,5.6,6.9,9.2,13.1,8.1c6.8-1.2,10.7-6.6,9.6-13.3
			C700.2,797.1,694.9,793.5,688.3,794.7z"/>
		<path class="st2" d="M303.5,681.8c4.8-0.8,9.2-6.5,8-11.1c-1.3-5.2-5.3-7.1-10.4-6.6c-4.7,0.5-8.5,5.9-7.8,10.4
			C294,678.7,299.4,682.5,303.5,681.8z"/>
		<path class="st2" d="M421.8,553.4c4.3-1.5,8.2-3.4,7.6-8.8c-0.6-5.3-4.6-4.8-8.2-4.2c-4.2,0.8-8,2.3-7.2,7.8
			C414.6,552.9,417.8,553.9,421.8,553.4z"/>
		<path class="st2" d="M297.2,768.7c-1.5-3.6-3.6-5.6-7.9-5c-4,0.6-6.8,2.5-6.2,6.5c0.6,3.6,2.7,6.9,7.5,6
			C294.9,775.5,296.6,772.6,297.2,768.7z"/>
		<path class="st2" d="M654.3,784.4c-3.1,1.1-5.7,3-5,6.4c0.6,3,2.8,5.8,6.1,5.1c3.2-0.7,5.7-3.3,5.2-7
			C660.2,785.5,657.6,784.2,654.3,784.4z"/>
		<path class="st2" d="M526,600.9c-1.6-3.3-3.7-5.1-7.2-4c-3.3,1-5,3.3-4.2,6.8c0.7,2.9,2.6,4.9,6,4
			C524.1,606.6,525.7,604.1,526,600.9z"/>
		<path class="st2" d="M369.5,813.9c-0.5-2.3-1.8-2.8-3.6-2.3c-2.3,0.7-3.1,2.5-2.5,4.7c0.4,1.6,1.3,3.2,3.2,2.6
			C369,818.2,369.7,816,369.5,813.9z"/>
		<path class="st2" d="M549.6,821.9c-4.7-4-7.1-0.3-9.8,1.3C543.1,824.2,546.1,823.8,549.6,821.9z"/>
		<path class="st2" d="M600.9,812.7c-3.7-2.3-6.1-0.8-10.5,0.8C595.2,815.1,597.7,814.3,600.9,812.7z"/>
		<path class="st3" d="M122.9,517.9C101,504.4,81.5,488.7,72,463.6c-3.1-10.9-3.5-21.9-1.9-33c1.4-9.9,5.7-18.8,10.3-27.6
			c5.5-10.6,12.8-19.6,22.5-26.7c14-10.1,30.4-12.2,46.8-12.9c13.8-0.5,26.3-4.5,38.8-9.9c14-6,24.5-16.3,33-28.2
			c7.8-11,15.5-22.3,17.8-36.4c1.8-10.6,2.9-21.4,5.4-31.9c5.1-20.9,13.2-40.7,24.6-59.1c15.4-25,35.2-45.9,58.8-63.3
			c11.5-8.5,23.9-15.9,36.5-22.3c11.4-5.7,23.6-10.2,36-14.2c21.3-6.8,43-10.8,65.1-12.1c22.8-1.3,45.6,0.9,68,5.9
			c27.7,6.1,53.2,17.5,76.9,32.7c15.2,9.8,28.1,22.2,39.9,36c8.3,9.7,16.1,19.5,22.2,30.7c9.9,18.1,21.9,33.8,40.1,45.1
			c24.7,15.3,49.9,19.4,77.8,10.6c12.5-4,25.7-7.1,39.1-6.5c20.7,0.8,36.9,11.1,51.1,25.1c2.2,2.1,4,3.7,7.1,2.4
			c12.2,20.1,15.8,41.4,9.4,64.4c-5,17.8-13.9,33.5-24.6,48.4c-3.5-0.1-1.3-2-1-3.1c4.3-13,9.4-25.8,10.5-39.6
			c1.4-16.8,0.6-33.3-8.9-48.1c-10.1-21.2-29.4-31.7-52.6-27.9c-9.4,1.5-18.8,4.1-28,6.7c-32.9,9.2-63.2,3-91.9-14.5
			c-17-10.3-30.8-23.4-40-41.3c-38.4-74.2-102.4-105.7-182.8-106.2c-61.2-0.3-115.6,20.6-160.5,63.2c-31.4,29.8-50.7,66-55.9,109.4
			c-5.3,44.3-29.7,75.2-68.4,95.4c-15.3,8-32.5,8.7-49.4,10.3c-14.3,1.3-28.2,3.6-39.5,13.5c-10.1,8.8-15.3,20-15.8,33.4
			c-3.5,12.2-0.7,23.9,2.9,35.4c5.8,18.4,18.4,32.7,30.5,47.2C122.7,515.3,125.8,516,122.9,517.9z"/>
		<path class="st4" d="M425.3,314.8c-0.2-1.3-0.6-2.7-0.7-4.1c-0.6-10.1-3.2-18-14.1-22.8c-9-3.9-13.7-13.8-18.3-22.5
			c-7.1-13.6-12.2-28-15.6-43c-5-21.9,0.8-41.1,18.5-54.5c31.1-23.6,66-30.5,103.5-17.3c17.9,6.3,29.1,19.5,32.6,38.4
			c3.8,20.9,3.5,41.8-0.7,62.6c-1.8,8.8-5.5,16.5-12.1,22.6c-2.9,2.6-3.1,5-2.4,8.4c2,9.6,3.9,19.3,5.5,29c3,17.5-7.2,34.8-24,40.7
			c-10.7,3.7-21.7,5.7-32.9,6c-18.7,0.5-33.9-12-37.2-30.6c-0.8-4.3-1.5-8.6-2.3-12.8C425.1,314.8,425.2,314.8,425.3,314.8z
			 M497.4,255.5c10.7-2,19.4-13.5,17.7-23.5c-1.9-11.4-13.5-19.8-24.6-17.8c-11.3,2-18.9,12.9-16.9,24.3
			C475.6,249.2,487,257.4,497.4,255.5z M405.8,251c2,11.1,11.9,18.6,22.1,17c11.6-1.9,20.3-13.2,18.5-24.1
			c-1.9-11.3-12.9-19.1-24.1-17.2C410.6,228.7,403.6,239,405.8,251z M481.8,316.2c0.7,4.1,1.5,8.1,2.2,12.1c0.4,2.3,1.1,3.6,4,3.4
			c9.1-0.5,16-8.9,14.1-17.6c-0.7-3.4-1.8-6.7-2-10.1c-0.3-5.3-1.9-6.9-7.6-5.2C479.1,302.8,479,302.5,481.8,316.2z M466.8,319.9
			c0.1,0,0.1,0,0.2,0c-0.6-3.2-1.4-6.3-1.6-9.4c-0.3-4-1.6-5.4-6-5c-15.2,1.5-15.2,1.3-12.8,16.5c0.1,0.7,0.3,1.3,0.3,2
			c0.5,8.6,4.3,10.9,13.6,12.2c7.6,1,9-0.6,7.7-8.2C467.8,325.2,467.3,322.5,466.8,319.9z M468.2,281.7c14.4-2.2,15-3.1,6.8-12.9
			c-3.7-4.4-7.1-12.1-12.1-11.4c-3.6,0.5-4.8,9.4-6.4,14.8c-3.5,11.7-3.2,11.9,9,10C466.5,282.1,467.4,281.9,468.2,281.7z"/>
		<path class="st5" d="M311.4,506c-6-10-6-10,4.5-15.5c15.5-8.2,31-16.3,46.5-24.4c2.1-1.1,4.8-2.5,4.1-4.7c-1-3-4.4-1.8-6.6-1.2
			c-17.3,4.1-33.7,10.8-50.5,16.8c-1.5,0.5-2.9,1.4-4.4,2c-7.1,2.7-14.6-1.9-15.3-9.4c-0.3-3.1,2.1-4.3,4.3-5.5
			c13.5-7.2,27.6-12.9,41.9-18.3c13.2-1.8,25.8-5.7,38.6-9.2c50.6-11.7,101-24,152.4-31.6c40.4-5.9,80.9-10.5,121.4-15.7
			c14.8-0.5,29.5,0.3,44.2,1.8c4.1,0.4,8.1,1.7,7.2,7.8c-0.8,5.6-0.6,10.9-8.8,10.8c-14.8-0.2-29.6,0.2-44.5,0.6c-5,0.1-10,1-15,1.6
			c-2.1,0.2-4.5,0.8-4.6,3.2c-0.2,2.6,2.3,3.2,4.3,3.5c7.9,1.1,15.8,2.1,23.7,3c9.1,1.1,18.1,1.9,27.2,3c12.2,1.6,12.2,1.7,9.9,13.9
			c-25-2.6-50-2.5-75-2.2c-34.5,0.4-68.7,3.9-102.8,8.3c-27.2,3.6-53.6,11-80,18.2c-31.4,8.6-62.1,19.4-92.3,31.5
			C331.8,498.3,322.6,504.8,311.4,506z"/>
		<path class="st6" d="M70.6,811.7c5.7,1.6,9.2,7.1,15,8.6c2.7,0.7,5.2,2,7.9,1.2c8.8-2.8,16.6,0,24.2,3.9c1.6,0.8,3,0.9,4.5,0.8
			c0.6,2.8,3,4,5.2,5.1c7.3,3.6,14.9,6.6,22,10.6c7,3.9,15.4,5.1,21,11.5c-6.9,8.3-7,8.4,1.8,14.1c20.6,13.6,43,24,65.1,34.7
			c18.4,8.9,38,15.4,57.5,21.7c57.4,18.7,116,30,176.7,30.9c44.4,0.6,88.2-2.5,131.7-11.7c28.2-5.9,55.7-13.6,82.7-23.5
			c48.4-17.8,93.7-41.6,135.6-71.8c37.9-27.4,71.7-59.2,103.2-93.6c10.9-11.9,22.1-23.7,30.9-37.4c1.7-2.6,4.6-5.7,2.3-9.3
			c-2.3-3.6-6.1-2.1-9.4-1.7c-0.2-2.6,1.5-4.1,3-5.8c5.5-6,10.9-12.1,16.3-18.1c6.7-4.8,11.4-11.5,17.3-17.1c4-3.8,8.1-6.3,13.6-6.9
			c11.7-1.2,19.6-7.3,23.4-18.6c0.2-0.5,1.1-0.7,1.7-1c5.6,8,7.9,17,8.1,26.7c-5.1,16.9-22.7,25.8-38.9,25.4
			c-5.8-0.1-9.6,1.6-13.1,6.5c-27.2,37.6-57.3,72.7-91.2,104.6C844,843.5,794.6,878.7,739,905c-42,19.9-85.5,35.2-131.3,44.6
			c-74.6,15.3-149.2,16.7-224,3.6c-84.7-14.8-163.5-45-235.7-92.1c-5.7-3.7-11.8-6.9-17.2-11.1c-4.7-3.6-8.8-3.4-13.9-1.3
			c-12.6,5.2-25,4.2-37-2.3c-1.6-0.8-3.4-1.5-3.8-3.6c-0.4-0.4-0.8-0.8-1.2-1.2l0,0.2C68.8,832.5,67.7,822.4,70.6,811.7z"/>
		<path class="st7" d="M888,267.9c-3.1,1.3-4.9-0.3-7.1-2.4c-14.3-13.9-30.5-24.3-51.1-25.1c-13.4-0.5-26.6,2.6-39.1,6.5
			c-27.9,8.8-53.1,4.8-77.8-10.6c-18.2-11.3-30.1-27-40.1-45.1c-6.1-11.1-14-21-22.2-30.7c-11.8-13.8-24.7-26.3-39.9-36
			c-23.7-15.2-49.2-26.6-76.9-32.7c-22.5-4.9-45.2-7.2-68-5.9c-22.1,1.2-43.8,5.3-65.1,12.1c-12.4,3.9-24.6,8.4-36,14.2
			c-12.7,6.4-25,13.8-36.5,22.3c-23.6,17.4-43.4,38.3-58.8,63.3c-11.4,18.4-19.5,38.2-24.6,59.1c-2.6,10.4-3.6,21.2-5.4,31.9
			c-2.4,14.1-10,25.4-17.8,36.4c-8.5,11.9-19,22.2-33,28.2c-12.5,5.3-25,9.3-38.8,9.9c-16.4,0.7-32.7,2.8-46.8,12.9
			c-9.7,7-17,16-22.5,26.7c-4.6,8.8-8.9,17.7-10.3,27.6c-1.6,11.1-1.3,22.2,1.9,33c-20.7-44.2,8.9-107.7,67.4-109.9
			c12.6-0.5,25.1-0.7,37.2-5c14.7-5.3,26.3-14.6,35.5-26.9c6.6-8.8,12.8-17.8,19.3-26.6c1.5-2,1.8-4.2,1.8-6.4
			c1.9-66.8,32.9-119.2,84.7-158.1c74.9-56.3,158.3-70.7,247.5-38.4c49.8,18,90.4,49,113.9,97.3c9.1,18.8,23,29.7,39,40.1
			c22.8,14.9,47,16.4,72.1,7.4c22.5-8.1,44.5-9.8,66.3,1.8c11.4,6,20.8,14.2,27.7,25.1C885.5,265.4,886.9,266.6,888,267.9z"/>
		<path class="st8" d="M487,506.3c-20.6,5.5-41.4,10.7-61.6,17.6c-8.2,2.8-16.6,4.7-24.3,8.7c-2.3,1.1-4.5,2.3-6.8,3.2
			c-37,13.9-70.9,33.1-101.5,58.4c-31.2,25.9-56.4,56.8-78.1,90.8c-10.2,15.9-19.7,32.3-27.1,49.7c-2.2,2.6-3.3,5.6-4,8.9
			c-6.1,11.1-10.9,22.9-14.2,35.1c-1.5,5.5-4.3,7.8-9.8,5.9c-3-1-5.8-0.3-8.7-0.1c1.8-1.7,3.2-3.5,3.8-6.2
			c10.9-49.3,32.5-93.7,61.4-134.9c28.4-40.4,63.1-73.9,105.9-98.5c28.2-16.2,58.5-27.9,89.6-37.3c17.9-5.4,36.1-10,54.1-15
			c2.6-0.7,5.3-1.8,7.7,0.7c0.6,1.1,1.6,1.2,2.7,1.1l0.2,0.2c0.4,3,2.1,3.9,4.9,2.9l0,0c0.5,0.4,1.1,0.7,1.6,1.1l0.1,0
			C482.9,501.9,485.4,503.9,487,506.3z"/>
		<path class="st8" d="M547.7,495.2c-10.3-2.8-19.8-7.4-30.7-12.9c22.3-4.3,43-6.3,63.8-7.9c32.6-2.5,65.2-3,97.9,0.3
			c27.3,2.8,53.2,10.7,78.6,20.5c43.3,16.8,81.8,41.3,115.4,73.5c1.3,1.2,2.5,2.6,4.9,5.3c-16.7-1.6-31.6-4.7-46.4-8.2
			c-0.1-2-1.5-3.2-3-4.3c-25.5-19-52.9-34.7-83-45.5c-32.5-11.6-65.6-19.9-100.2-22.7c-32.1-2.6-64-1.1-95.9,1.7l0.1,0
			C548.7,494.5,548.2,494.5,547.7,495.2z"/>
		<path class="st4" d="M400,317.4c1.7,9.3,3,18.1,4.9,26.7c0.9,4-0.5,6.4-3.6,8.5c-5.5,3.7-10.6,7.9-16.2,11.4c-4,2.6-5,4.8-3.3,9.8
			c6.2,18.7-7.6,36.4-26.8,35.4c-14.2-0.7-23.6-11.8-21.5-25.9c0.5-3.7,0.1-4.8-3.8-5.6c-15.4-3.1-22.2-19.4-14-32.9
			c8.7-14.2,28.7-17.3,40.7-5.4c4.7,4.7,7.4,4.3,12.1,0.6C378.6,332.2,389.4,325,400,317.4z"/>
		<path class="st4" d="M543.5,291.8c13.7,3.7,26.7,6.9,39.6,10.8c4.5,1.3,6,0.4,7.8-3.9c4.5-11.1,13.6-16.3,25.4-16.4
			c10.1,0,18.1,4.2,22.8,13.6c5.1,10.4,2.3,21.4-7.6,27.3c-3.3,2-3.3,3.4-1.8,6.4c4.8,9.5,4.4,18.7-3,26.6
			c-6.9,7.4-19.3,9.4-29.3,5.2c-9.5-4-16.8-14.2-16-24.2c0.4-4.8-1.1-6.4-5.4-7.3c-7.1-1.6-14.1-3.9-21.2-5.5
			c-3.6-0.8-5.3-2.4-6-6.1c-1.4-8.1-3.4-16.1-5.1-24.1C543.5,293.7,543.6,293.3,543.5,291.8z"/>
		<path class="st9" d="M311.4,506c11.2-1.2,20.4-7.8,30.5-11.8c30.3-12.1,60.9-22.9,92.3-31.5c26.4-7.2,52.8-14.7,80-18.2
			c34.1-4.5,68.3-7.9,102.8-8.3c25.1-0.3,50.1-0.4,75,2.2c0.8,10-1,11.2-10.9,10.5c-20.4-1.6-40.8-1.8-61.2-1.4
			c-25.8,0.6-51.4,2.9-76.9,6.2c-23.8,3-47.5,7.2-70.9,12.5c-32.9,7.4-65.5,15.9-97.2,27.8c-17.5,6.6-35,12.8-51.9,20.7
			C315.7,517.9,314.8,517.1,311.4,506z"/>
		<path class="st4" d="M378.9,289.7c-11.2-3.6-21.1-6.5-30.7-9.9c-4.3-1.5-6.3-1.5-8.6,3.4c-5.1,10.8-15.2,13.7-26.4,13.2
			c-10-0.5-18.3-7-21.5-16.5c-3.6-10.8,0.4-20.3,10.8-24.8c3.1-1.3,4.6-2,2.5-5.6c-4.7-8.2-6.3-16.8,0.1-24.9
			c6.6-8.5,15.8-11,25.8-8.9c10.1,2.2,16.8,8.9,19.3,19.2c0.4,1.8,0.9,3.6,0.8,5.4c-0.4,5.8-0.7,11.1,7.1,12.3
			c1.3,0.2,2.6,2.5,3.4,4C367.1,267.1,372.5,277.6,378.9,289.7z"/>
		<path class="st4" d="M553.3,257.9c1.6-13,3-24.7,4.4-36.4c0.3-2.3,0.3-5.1,2.5-6.1c6.7-3.2,4-7.6,2.3-12.3
			c-5.7-16.4,4.2-32.6,21.3-35.1c15.2-2.3,26.7,8,25.6,23.3c-0.4,5.1-0.5,7.5,6,8.3c15.1,1.8,21,20.2,11.5,33.9
			c-8.9,12.7-28.6,15.2-39.8,4.6c-3.4-3.3-5.3-2.6-8.4-0.1C570.8,244.4,562.4,250.8,553.3,257.9z"/>
		<path class="st3" d="M549.1,495.2c31.9-2.8,63.8-4.3,95.9-1.7c34.6,2.8,67.8,11.1,100.2,22.7c30,10.7,57.4,26.4,83,45.5
			c1.5,1.1,2.8,2.3,3,4.3c-19.6-2.4-38.4-8-57.5-12.7c-2.2-0.5-2.8-1.8-3.2-3.8c-1.6-9.5-8-14.4-16.5-17.4
			c-25.9-9-52.5-15.8-79.2-21.8c-18.9-4.3-37.9-8.4-57.3-10.2c-9.9-0.9-19.2,0.3-26.6,7.9c-1,1-2,2-3.5,1.5
			C574.3,505.4,561.1,501.9,549.1,495.2z"/>
		<path class="st1" d="M955,372.5c-1,0.9-0.8,2.1-0.6,3.2c-1.1,1.8-1.4,3.8-1.4,5.9c-0.3,0.4-0.4,0.8-0.2,1.2
			c-1.4,2.9-2.5,5.9-2.9,9.2c-0.2,0.5-0.4,1.1-0.5,1.6c-2.1,3.7-4.1,7.6-5.2,11.8c-0.3,0.5-0.6,1.1-0.9,1.6
			c-2.4,2.9-4.5,6.1-5.6,9.8c-0.3,0.4-0.5,0.8-0.8,1.2c-1.6,1.3-2.8,2.8-3.2,4.9c-0.4,0.6-0.8,1.1-1.1,1.7c-2,1.7-3.4,3.8-4.4,6.3
			l-0.1,0.1c-0.7,0.2-1.2,0.6-1,1.5c-0.4,0.5-0.8,1.1-1.2,1.6c-2.6,3.1-5.2,6.2-7.8,9.3c-13.7,1.2-14.4-11.2-19.7-18.8
			c-1.4-1.9,0-3.9,1.5-5.5c9.1-10,17-21,23.4-32.7c8.8-16.1,15.8-33.1,18.4-51.7c1.2-8.8,2.4-17.6,2-26.5c0-1.4,0.1-2.8,1.7-3.4
			c0.6,0.5,1.3,1,1.9,1.5c-0.2,0.4-0.1,0.8,0.3,1c6,20.5,10.2,41.3,7.7,62.8C955.1,370.9,955,371.7,955,372.5z"/>
		<path class="st1" d="M98.3,592c-3.5-3.7-8-6-12.2-8.7C46.4,558.6,26.2,522.8,25.6,476c-0.1-5-0.3-10-0.5-14.9
			c4,22.4,14.3,41.6,29.1,58.5c13.2,15.2,28.8,27.7,46,38c7.3,4.4,10.4,8.3,10,18C109.8,585.4,104.6,588.3,98.3,592z"/>
		<path class="st10" d="M780.5,587.7c-5.8-1.5-6.9,0.4-7.7,6.6c-2.8,20.4-12.2,38.1-26.7,52.8c-17,17.1-37.4,28.1-61.5,31.5
			c-33.9,4.8-61.8-6.5-84.2-32.1c-5.2-6-10.4-12.1-12.2-20.2c6.2,7.5,12.1,15.2,19.6,21.6c18.3,15.7,39.9,21.6,63.1,19
			c49.5-5.7,79.5-35.1,94-81.7c1.8-5.8,3.9-7.5,9.4-4.9c2.9,1.3,6.3,1.2,8.9,3.4C781.2,584.3,780.2,585.6,780.5,587.7z"/>
		<path class="st7" d="M648.4,389.2c-40.5,5.2-81,9.8-121.4,15.7c-51.4,7.6-101.8,19.9-152.4,31.6c-5.9,1.2-11.9,2.3-17.8,3.7
			c-4.1,1-7.9,3.5-12.4,1.7c59-25.2,120.9-39.6,184.2-48.3c31.7-4.3,63.6-6.5,95.6-5.5C632.3,388.2,640.4,388.8,648.4,389.2z"/>
		<path class="st10" d="M873.6,289.9c9.5,14.8,10.2,31.2,8.9,48.1c-1.1,13.9-6.2,26.6-10.5,39.6c-0.4,1.2-2.5,3.1,1,3.1
			c-8.6,12.1-19.2,22.4-30.6,31.8c-2.1,1.7-4.6,2.9-7.5,3c-4.5,0.1-8-1.7-10.3-5.6c-2.1-3.6,0.7-6.1,2.6-8.4
			c11.4-14.2,23.1-28.2,32.2-44.2C871.3,336.3,877.7,314.3,873.6,289.9z"/>
		<path class="st10" d="M122.9,517.9c2.9-1.9-0.2-2.6-0.8-3.4c-12.1-14.5-24.7-28.8-30.5-47.2c-3.6-11.4-6.4-23.2-2.9-35.4
			c7.5,33.8,30.2,55.9,57.8,74c7.8,5.1,15.8,10,23.8,14.8c3.3,1.9,6.8,3.6,4.9,8.2c-1.8,4.4-4.7,8.1-10.2,7.6
			c-3.2-0.3-6.4-0.9-9.3-2C144.2,530,133.1,524.8,122.9,517.9z"/>
		<path class="st6" d="M780.5,587.7c-0.3-2.1,0.6-3.4,2.5-4.1c15.5,3.7,30.9,7.8,46.5,10.9c23.2,4.6,46.5,8.6,70.2,10
			c4.9,0.3,8.6,1.9,11.6,6c6.6,9,13.5,17.7,20.1,26.7c1.8,2.5,3.8,4.3,6.8,5.1c-2.9,0.7-6.1,0.8-8.5,2.2c-4.6,2.8-7.5,1.1-10.5-2.4
			c-3.7-4.3-7.9-8.2-11.6-12.5c-12.1-13.9-28.7-17-45.7-20.3c-26.1-5-52-11.1-77.4-19.2C782.9,589.7,781.2,589.4,780.5,587.7z"/>
		<path class="st3" d="M786.4,431.5c-0.7,6.3-2.9,12.1-5.7,17.7c-19-6.4-38.1-12.4-58.1-14.9c-2.1-0.3-3.2-1.6-4-3.2
			c-0.1-5.4,0-10.8,1.6-16c8.2-2.1,16.4-3.5,24.8-0.8c9,2.9,18.3,5,26.8,8.9C776.8,425.4,783.6,425.2,786.4,431.5z"/>
		<path class="st3" d="M876.4,508.4c2.6-7,7.9-12.2,12.5-17.9c2.2-0.2,4.2-0.2,6.4,1c8.9,4.5,17,10.1,23.8,17.2
			c6.1,6.4,12.5,12.8,16,21.2c-3.8,6.6-9.7,11.1-15.7,15.5C906.9,530.9,892.8,518.3,876.4,508.4z"/>
		<path class="st3" d="M277.4,495.7c3.4,7.5,6.8,15.1,10.2,22.6c-3.8-6-8.4-4.5-13.5-1.7c-15.4,8.5-29,19.3-41.6,31.5
			c-3.9-4.7-8.8-8.6-11.4-14.3c5.7-9.1,13.8-16.1,21.6-23.3c8-7.3,16.5-14.1,28.4-14.3C273.2,496.2,275.5,497.8,277.4,495.7z"/>
		<path class="st3" d="M132.3,687.7c-5.5-2.2-10.9-4.4-15.9-7.6c-1.3-13.6,4.7-25.1,11.2-36.2c4.3-7.2,9.1-14.4,16.9-18.5
			c5.8,3.1,11.3,6.6,15.9,11.4c-9.6,14.1-18.5,28.6-24.5,44.7C135,683.8,135.1,686.6,132.3,687.7z"/>
		<path class="st3" d="M174.3,613.7c-5-2.4-9.2-5.9-13.1-9.7c-2.1-4.9-1-9,2.6-13c6.6-7.4,12.4-15.6,19-22.9
			c6-6.6,12.2-13.7,22.7-12.6c3.7,3.1,6.4,7,8.6,11.2C199,580.8,186,596.7,174.3,613.7z"/>
		<path class="st3" d="M803.6,461.6c-0.1-5.3,2-10,3.9-14.8c6.1-2.7,12.1-1,17.6,1.5c15,6.7,29.6,14.2,43.6,22.9
			c-2.3,7-7,12.5-11.3,18.2c-8.3-6.1-17.2-11.4-26.6-15.4C821.6,470,813.3,464.3,803.6,461.6z"/>
		<path class="st3" d="M983.6,592.1c-2.4,7-9.5,9.2-14.2,13.9c-3.3,0-3.7-3-4.9-4.9c-3.7-5.7-7.4-11.3-12.1-16.3
			c-5.7-6.1-11.2-12.3-16.8-18.5c1.3-2.2,3.3-3.5,5.7-4.2c9.6-0.5,17.2,3.9,24.2,9.7C972.5,577.7,978,584.9,983.6,592.1z"/>
		<path class="st6" d="M132.3,687.7c2.8-1.1,2.7-4,3.6-6.3c6-16.1,14.9-30.5,24.5-44.7c4,1.2,6.7,4.2,9.9,6.7c0.3,0.3,0.7,0.6,1,0.8
			c0.3,0.3,0.6,0.7,0.9,1c-10.3,15.2-18.5,31.4-23.4,49.1C143,693.1,137.6,690.5,132.3,687.7z"/>
		<path class="st6" d="M174.3,613.7c11.7-17,24.7-32.9,39.8-47c3.2,2.7,5.3,6.2,7.3,9.8c-0.3,0.9-0.3,2-0.9,2.6
			c-11.9,12.6-22.6,26-31.7,40.7c-0.8,1.3-2.2,2.3-4,2.4C181.6,619,177,617.5,174.3,613.7z"/>
		<path class="st6" d="M876.4,508.4c16.4,9.9,30.5,22.5,43,37c-2.7,5.2-7.4,8.4-11.8,11.9c-6.9-10.1-15.3-18.6-24.6-26.6
			c-4.8-4.1-10.9-7.5-13.5-13.9C871.8,514,874.1,511.2,876.4,508.4z"/>
		<path class="st7" d="M70.6,811.7c-2.9,10.7-1.8,20.7,4.3,30.1c-15.5-12.8-17-36.5-3.3-50.4c6.5-6.5,13.7-8.5,22.4-5.1
			c6.8,2.7,13.7,5,21,6.2c8.9,1.5,17.2-0.8,25.5-3.4c-15.2,9.3-24.4,10.5-44.6,5.7C83.6,792,73.3,798.9,70.6,811.7z"/>
		<path class="st6" d="M232.6,548.2c12.6-12.2,26.2-23,41.6-31.5c5.1-2.8,9.7-4.3,13.5,1.7c0.5,0.9,1.1,1.9,1.6,2.8
			c-0.2,4-4.2,3.8-6.4,5.2c-14.9,9.2-28,20.6-41.6,31.6C237.7,555.3,235,551.9,232.6,548.2z"/>
		<path class="st3" d="M119.5,711c3.6-0.4,5.9,1.9,8.3,3.9c-8.6,13-12.8,27.7-16.4,42.6c-0.4,1.8-0.2,3.6-2.3,4.5
			c-4.4-1.1-8.7-2.2-12.4-4.9c-0.4-2.2-1.9-4-1.4-6.6c2.2-9.7,4.7-19.3,10.1-27.8C108.9,717.4,112.7,712.3,119.5,711z"/>
		<path class="st7" d="M1031.9,664.9c-0.1-9.7-2.4-18.7-8.1-26.7c-6.8-6.8-14-12.3-24.6-8.9c-3.4,1.1-6,3.3-8.8,5.1
			c-12.8,8.4-26.5,12.7-41.9,10c-3-0.5-3.1-0.2-3.3-1.2c12.1,1,22.9-3.1,33.2-8.5c4.5-2.3,7.8-6.8,11.7-10.1
			c9.8-8.4,19.5-8.6,29.7-0.7C1032,633.3,1036.6,648.9,1031.9,664.9z"/>
		<path class="st6" d="M803.6,461.6c9.7,2.7,18,8.4,27.2,12.4c9.4,4.1,18.2,9.4,26.6,15.4c-1.3,4.6-4.4,7.9-7.4,11.4
			c-2.8,0.3-4.6-1.6-6.7-3c-13.8-9.4-28.1-17.7-43.3-24.6C800.6,469.2,801.2,465.1,803.6,461.6z"/>
		<path class="st6" d="M718.5,431c0.9,1.7,1.9,3,4,3.2c20,2.5,39.1,8.5,58.1,14.9c-0.2,3.8-2.7,6.8-3.7,10.4c-2,0.5-4,0.9-6,0
			c-15.5-6.3-31.8-10.1-47.9-14.2c-3.3-0.8-5.1-2.7-5.8-5.9C717.7,436.7,718.1,433.8,718.5,431z"/>
		<path class="st6" d="M935.5,566.2c5.6,6.2,11.1,12.5,16.8,18.5c4.7,5,8.4,10.6,12.1,16.3c1.2,1.9,1.6,5,4.9,4.9
			c-2.7,3.5-6.3,6-9.7,8.7c-0.4,0.3-0.7,0.7-1.1,1c0,0-0.3,0.3-0.2,0.3c-2.1,0.4-2.6-1.3-3.3-2.7c-3.2-6-7.4-11.2-11.4-16.7
			c-5.4-7.5-12.9-13.3-17.3-21.6C929.3,572.1,932.4,569.2,935.5,566.2z"/>
		<path class="st7" d="M277.4,495.7c-1.9,2.1-4.3,0.5-6.3,0.5c-11.9,0.2-20.4,7-28.4,14.3c-7.8,7.1-15.8,14.2-21.6,23.3
			c-6.6-7.1-6.7-7.2-0.1-14.2c10.1-10.9,20.8-21.2,33.2-29.6C264.2,483.3,271.6,485.4,277.4,495.7z"/>
		<path class="st6" d="M109.2,761.9c2.1-0.8,1.8-2.7,2.3-4.5c3.5-14.9,7.7-29.7,16.4-42.6c3.9,0,7.1,1.7,10.2,3.7
			c1.3,2.1,0.1,3.7-0.9,5.5c-4.8,9.2-8.3,18.9-10.8,29c-1.1,4.4,0.4,9.6-3.6,13.2C118.3,764.9,113.7,763.4,109.2,761.9z"/>
		<path class="st7" d="M786.4,431.5c-2.9-6.2-9.7-6-14.7-8.3c-8.5-3.9-17.8-6-26.8-8.9c-8.4-2.7-16.6-1.3-24.8,0.8
			c1.2-10.6,6.2-14.9,16.5-12.6c17.1,3.9,33.4,10.4,49.2,18.1C792.3,423.8,787.2,427.8,786.4,431.5z"/>
		<path class="st9" d="M717.3,439.5c0.7,3.2,2.5,5.1,5.8,5.9c16.2,4.1,32.4,7.8,47.9,14.2c2,0.8,4,0.5,6,0c0,0.4,0.2,0.9,0.1,1.3
			c-3.6,10.4-3.5,10.2-14,6.8c-11.8-3.8-23.9-7.1-35.8-10.7C714.2,453,714.2,452.9,717.3,439.5z"/>
		<path class="st7" d="M205.5,555.4c-10.5-1.1-16.6,6-22.7,12.6c-6.7,7.3-12.5,15.5-19,22.9c-3.6,4.1-4.6,8.1-2.6,13
			c-10.9-7.5-11-7.5-3.6-18.2c8.1-11.7,17.1-22.5,27.4-32.3C195.2,543.9,197,544.1,205.5,555.4z"/>
		<path class="st9" d="M800,473.2c15.2,6.9,29.5,15.2,43.3,24.6c2,1.4,3.9,3.3,6.7,3c-5.3,10.2-5.1,9.9-15.5,3.5
			c-10.2-6.3-20.9-11.7-31.4-17.5C793.5,481.5,792.4,483.8,800,473.2z"/>
		<path class="st6" d="M487,506.3c-1.7-2.4-4.1-4.4-4-7.7c16.8,7.5,33.4,15.6,50.7,21.8c12.4,4.5,25,8.7,37.6,12.5
			c9.5,2.8,9.6,2.5,6.3,12.5c-0.5-2.4-0.2-4.9-3.6-5.8c-29.3-7.7-57.3-19-84.6-32.2C488.7,507,487.9,506.6,487,506.3z"/>
		<path class="st9" d="M241.2,558c13.5-11,26.7-22.4,41.6-31.6c2.3-1.4,6.2-1.2,6.4-5.2c5.8,7.2,5.3,9.4-2,14.6
			c-10.9,7.8-21.8,15.5-31.9,24.3C247.5,566.9,246.5,566.7,241.2,558z"/>
		<path class="st7" d="M144.5,625.5c-7.8,4.2-12.7,11.3-16.9,18.5c-6.5,11.1-12.6,22.5-11.2,36.2c-4.8-1.6-6.3-5-6.3-10
			c-0.2-20.3,11.5-34.9,23.4-49.4c1.4-1.7,3-1.8,4.7-0.4C140.3,622.1,142.4,623.8,144.5,625.5z"/>
		<path class="st7" d="M868.7,471.2c-14-8.7-28.6-16.2-43.6-22.9c-5.6-2.5-11.5-4.2-17.6-1.5c0.3-1.3,0.6-2.7,1.1-4
			c2.9-8.4,4.8-9.3,13-5.6c15.8,7.1,31.3,14.6,45.3,25C870.4,464.8,871.6,467.5,868.7,471.2z"/>
		<path class="st9" d="M184.9,622.2c1.8,0,3.2-1.1,4-2.4c9.2-14.7,19.9-28.1,31.7-40.7c0.6-0.6,0.6-1.7,0.9-2.6
			c8,7.7,7.8,7.6,0.5,16c-8,9.2-16.3,18.3-23.2,28.5C193.2,629,192.8,628.8,184.9,622.2z"/>
		<path class="st7" d="M935.1,529.9c-3.5-8.5-9.9-14.9-16-21.2c-6.8-7.1-15-12.7-23.8-17.2c-2.3-1.1-4.2-1.2-6.4-1
			c4.7-10.3,5.3-10.6,14.8-4.6c13,8.2,25.8,16.9,31.4,32.3C936.3,521.7,940.1,526,935.1,529.9z"/>
		<path class="st7" d="M119.5,711c-6.8,1.4-10.6,6.4-13.9,11.7c-5.3,8.5-7.9,18.1-10.1,27.8c-0.6,2.5,0.9,4.4,1.4,6.6
			c-7.1,0.2-8.6-3.7-8.1-10c1-13.5,4.8-25.8,13.3-36.5c3.7-4.7,7.5-6.9,12.9-2.4C116.2,709.4,117.9,710.1,119.5,711z"/>
		<path class="st9" d="M869.5,516.7c2.6,6.4,8.7,9.8,13.5,13.9c9.3,8,17.8,16.5,24.6,26.6c-1.7,3.9-4.2,4.6-7.4,1.8
			c-11.7-10.3-23.4-20.6-35.2-30.9c-2.1-1.8-1.1-3.8,0-5.5C866.4,520.6,868,518.7,869.5,516.7z"/>
		<path class="st9" d="M148.8,694.5c4.9-17.7,13.1-33.9,23.4-49.1c7.8,2.7,7.9,3.1,4.3,10.1c-6.3,12.3-12.7,24.6-18.6,37.1
			C155.4,698.1,152.8,698.2,148.8,694.5z"/>
		<path class="st7" d="M983.6,592.1c-5.6-7.2-11.1-14.5-18.2-20.4c-7-5.9-14.6-10.2-24.2-9.7c9.6-10.7,11.6-11.1,23.3-2.7
			C975.8,567.3,982,578.4,983.6,592.1z"/>
		<path class="st9" d="M926.3,575.1c4.4,8.3,11.9,14.1,17.3,21.6c4,5.5,8.2,10.7,11.4,16.7c0.7,1.4,1.1,3.1,3.3,2.7
			c-6.2,6.1-6.2,6-10.6-0.9c-6.8-10.4-15.3-19.4-23.1-29C919.5,579.8,919.3,579.9,926.3,575.1z"/>
		<path class="st9" d="M122.8,766.3c4-3.6,2.6-8.8,3.6-13.2c2.4-10.1,6-19.8,10.8-29c0.9-1.8,2.2-3.4,0.9-5.5
			c5.9,0.7,7.4,4.1,5.2,9.1c-4.9,11.3-7.7,23.2-11.1,35C130,770.2,129.8,770.3,122.8,766.3z"/>
		<path class="st3" d="M344.5,441.8c4.5,1.8,8.3-0.7,12.4-1.7c5.9-1.4,11.9-2.5,17.8-3.7c-12.8,3.5-25.5,7.4-38.6,9.2
			C338.8,444.4,341.7,443.1,344.5,441.8z"/>
		<path class="st6" d="M576.6,551.4c-0.7-2.1-1.3-4.2,1.1-5.7C578.2,547.8,577.8,549.7,576.6,551.4z"/>
		<path class="st6" d="M481.4,497.5c-2.8,1-4.5,0.1-4.9-2.9C478.4,495,480.2,495.7,481.4,497.5z"/>
		<path class="st6" d="M476.3,494.4c-1.1,0.1-2.1,0-2.7-1.1C474.7,493.1,475.7,493.2,476.3,494.4z"/>
		<path class="st9" d="M958.6,615.7c0.4-0.3,0.7-0.7,1.1-1C959.3,615,958.9,615.4,958.6,615.7z"/>
		<path class="st9" d="M171.3,644.4c-0.3-0.3-0.7-0.6-1-0.8C170.6,643.8,171,644.1,171.3,644.4z"/>
		<path class="st3" d="M547.7,495.2c0.5-0.7,1-0.7,1.4,0C548.7,495.2,548.2,495.2,547.7,495.2z"/>
		<path class="st7" d="M74.9,841.6c0.4,0.4,0.8,0.8,1.2,1.2C75.7,842.4,75.3,842,74.9,841.6z"/>
		<path class="st6" d="M483,498.6c-0.5-0.4-1.1-0.7-1.6-1.1C481.9,497.8,482.4,498.2,483,498.6z"/>
		<path class="st1" d="M20.7,626c-10.2,2.3-17.2-1.9-19.8-9.7c-2.5-7.4,0.3-15.9,7.2-18.7c12.7-5.2,25.5-10,38.5-14.3
			c8.6-2.8,15.8,1.4,19,9.9c2.9,7.8-0.2,15.4-8.7,18.8C44,617.3,30.9,622.1,20.7,626z"/>
		<path class="st1" d="M916.5,81.4c0.4-0.1,0.8-0.3,1.3-0.4c2.8,0,5.6,0,8.3,0c1.4,0.7,2.9,1.4,4.3,2.2c3.3,2,5.5,5,7.4,8.2
			c0.9,4.3,0.7,8.5-0.4,12.6c-0.7,1.1-1.5,2.2-2.2,3.3c-0.4,0.5-0.8,0.9-1.3,1.4h0c-3.3,1.8-6.3,4.1-8.7,7.1c-0.5,0-0.8,0.2-1,0.6
			c-0.5,0.4-0.9,0.8-1.4,1.2c-0.4,0.3-0.7,0.6-1.1,0.9c-0.4,0.3-0.8,0.6-1.2,1c-2,0.7-3.6,2-4.9,3.7c-6.6,4.2-12.7,9-18.3,14.5l0,0
			c-3.8,1.8-6.9,4.4-9.9,7.3l0,0c-4.4,1.6-8.9,2.4-13.5,1.2c-0.6-0.3-1.1-0.6-1.7-1c-0.5-0.3-1-0.7-1.5-1c-0.5-0.4-1-0.9-1.5-1.3
			c-4.8-6.8-6-14-2.8-21.8c0.4-0.9,0.9-1.7,1.3-2.6c4.1-1.4,7-4.3,9.7-7.5c0.8-0.6,1.7-1.1,2.5-1.7c0.3-0.2,0.6-0.5,0.9-0.7l0.1-0.1
			c2.5-1.1,4.6-2.8,6.2-5.1c0.5-0.3,1-0.6,1.4-1c6-4.1,11.8-8.3,16.9-13.5l0,0c1.8-0.4,3.1-1.5,3.9-3.1l0.1,0
			C911.8,84.4,914.1,82.9,916.5,81.4z"/>
		<path class="st1" d="M788.1,166.2c-0.2-0.3-0.5-0.5-0.9-0.4c-2-2.4-3.9-4.8-5.9-7.2c-1.6-4.6-0.7-9.1,0.5-13.6l-0.3-0.2l0.3,0.2
			c4.8-4.1,9.7-8.2,14.5-12.3l0,0c2-1.4,4.2-2.6,6.1-4.2c5.2-4.1,10.4-8.1,17.6-7.1l0-0.1c0.6,0.3,1.3,0.6,1.9,0.9
			c0.5,0.3,0.9,0.7,1.4,1c0.6,0.5,1.2,0.9,1.8,1.4c0.6,0.7,1.2,1.4,1.9,2c0.2,0.4,0.4,0.8,0.6,1.2c2,4.5,2,9.2,0.8,13.9
			c-0.3,0.6-0.7,1.2-1,1.8c-6.5,5.3-13.1,10.5-19.6,15.8c-0.8,0.6-1.6,1.1-2.4,1.7c-1.2,0.2-2.1,0.8-2.6,1.9c-0.5,0-0.9,0.2-1.1,0.6
			C796.8,162.9,793.1,168.6,788.1,166.2z"/>
		<path class="st1" d="M1016.9,423.5c5.1,15.6-1,24.4-17.4,24.6c-10.5,0.1-20.9-0.1-31.4-0.1c-4.7,0-9-1-12.6-4.2
			c-0.8-1.2-1.6-2.5-2.4-3.7c-1.8-5.7-2-11.4,0.8-16.9c1.3-1.4,2.7-2.7,4-4.1c5.1-2.8,10.8-2,16.3-2.7c0.9,0,1.9-0.1,2.8-0.1
			c8.8,1.4,17.7,1,26.5,0.4c2.4,0.6,4.7,1.3,7.1,2c1.7,1.1,3.3,2.1,5,3.2l0,0c0.4,0.5,0.9,1,1.3,1.5L1016.9,423.5z"/>
		<path class="st8" d="M967.8,681.8c-5.4,6-10.8,12.1-16.3,18.1c-1.6,1.7-3.2,3.2-3,5.8c-7.8,8.5-15.5,17.2-23.5,25.6
			c-8.3,8.6-8.4,8.5-17.2,0.4c-1.7-1.5-3.6-2.9-5.2-4.4c-9.2-8.3-10.7-8.2-19.4,0.3c-2.8,2.7-3.1,4.8-0.2,7.3
			c5.3,4.6,10.5,9.5,16.1,13.7c3.9,2.9,3.6,5,0.3,8c-7.3,6.5-14.5,13.2-21.7,19.9c-8.2,7.6-8.2,7.6-14.9-0.9
			c-0.9-1.1-1.8-2.1-2.7-3.1c-11.1-12-9-13.5-23.6-0.3c-7.2,4.8-14.3,9.7-21.5,14.5c-8.4,5.5-8,6-2.5,14.7c3.9,6.1,11,9.8,12.8,17.4
			c-3.3,2.1-6.7,3.9-9.8,6.3c-5.2,4-7.3,3-10.4-3.2c-10.7-21.4-17-18.9-30.6-9.6c-5.5,3.8-5.8,8.4-3.3,13.6c2.3,4.9,5,9.7,7.9,14.4
			c2.2,3.5,1.6,5.9-2,7.7c-7.6,3.8-15.1,7.5-22.6,11.3c-3.6,1.8-5.3,0-6.9-3.1c-2.8-5.7-5.6-11.5-8.9-16.9c-3.7-6-7.9-1.2-11.8,0.1
			c-4.1,1.4-5.1,3.8-3,7.9c2.8,5.2,5.2,10.6,7.5,16.1c1.3,3.1,1.8,6.3-2.7,7.7c-9.8,3-18.7,8.3-28.7,11.1c-9.3,2.6-8.8,2.8-12.4-6.6
			c-8-20.4-3.7-17.3-22.7-11.2c-0.2,0.1-0.4,0.1-0.7,0.2c-6,0.7-6,4.4-4.5,8.9c1.6,5,3.1,10,4.9,14.9c1.3,3.6,0.2,5.6-3.4,6.6
			c-10.3,3-20.6,5.9-30.8,9.2c-5.6,1.8-7.9-0.1-8.4-5.8c-0.4-4.3-1.6-8.5-2.4-12.8c-1.9-9.3-4.1-10.4-13.3-7.2
			c-4.2,1.5-7.5,2.7-5.8,8.4c1.8,5.9,2.4,12.1,4.1,18c1.1,3.8,0.5,5.5-3.5,6.2c-16.2,2.8-32.5,5.6-48.6,8.6c-5,0.9-6.8-1.2-6.8-5.7
			c0-9.4-2.6-18.5-3.9-27.8c-0.7-5.1-3.6-7-8.6-6.3c-8.1,1-10.5,3.5-9.8,11.6c0.7,8,1.4,15.9,2.8,23.8c0.9,5-0.3,7.4-5.5,7.5
			c-5.9,0.1-11.9,0.2-17.7,0.8c-4,0.4-4.3-1.2-4.4-4.6c-0.2-6.8-1-13.6-1.8-20.4c-0.9-7-6.5-4-10.2-4.3c-4-0.3-6.4,1.6-6.2,6.1
			c0.3,5.7-0.3,11.4,0.4,17.1c0.7,5.1-1.4,6.5-5.8,6.6c-17.3,0.3-34.6-0.7-51.9-1.9c-3.8-0.3-4.9-1.8-4.5-5.8
			c0.6-6.1,0-12.3,0.4-18.4c0.3-5.3-3.2-5.8-6.6-5.5c-3.6,0.3-9.3-3-9.7,4.7c-0.3,5.9-1.4,11.8-1.6,17.7c-0.1,4-1.4,5.3-5.3,4.7
			c-9-1.4-18-2.8-27.1-3.9c-4.6-0.6-4.9-2.9-3.9-6.6c1.5-5.3,2.5-10.7,4-15.9c1.2-3.9,0.1-6.1-3.9-7.1c-5.8-1.3-11.5-2.8-17.3-4
			c-3-0.6-5.2,0.6-6.2,3.8c-1.9,6.1-4.3,12-6.2,18.1c-1.2,3.9-3.3,5.1-7.2,3.9c-9.6-2.9-19.6-4.1-29-7.7c0-5.2-4.6-3.3-7.1-4.2
			c-4.2-1.5-6.8-2.3-3.9-7.9c2.2-4.1,4.2-9.1,2.2-14.2c-1.4-6.9-7.9-5.8-12.4-7.5c-3.9-1.5-4.6,2.6-6.4,4.7c-3.3,4-4,9.1-6.2,13.6
			c-1.3,2.7-3.1,5.3-6.1,4.3c-9.6-3.3-19.2-7.1-28.6-10.9c-2.2-0.9-3.6-2.4-1.9-5.4c3.1-5.3,5.5-10.9,8.6-16.2c2.3-4,0.7-6-2.9-7.1
			c-1.9-0.6-4-0.6-6-0.9c6.5-5.7,9.2-14.6,16.2-19.9c-0.6-0.6-1.3-1.2-1.9-1.8c1.7-0.3,3.4-0.7,5.1-1c34.8,13.5,71.1,20.8,107.8,27
			c34.4,5.8,69.1,8.2,103.9,8.2c22.7,0,45.4,0.1,68-3.2c9.4-1.4,19.1-0.6,28.5-2.6c2.3,0,4.7,0.9,6.7-1.1c4.9-0.3,9.9-0.5,14.4-2.9
			c2.1,1.7,4.4,0.8,6.6,0.4c18.5-3.3,37.1-5.9,55.3-10.2c29.3-6.9,57.6-16.7,84.9-29.6c36.2-17.1,70.7-37,102.4-61.5
			c16.6-12.9,32.7-26.4,48.9-39.7c5.3-4.4,9-10.2,13-15.6c2.8-0.6,5.5-1.1,8.3-1.7c0.9,2.3,1.9,4.6,2.6,7c2.9,9.1,7.7,10.1,14.6,2.8
			c4.2-4.5,7-10.1,9.8-15.6c9.1-17.8,13.3-19.5,31.8-12.8C959.5,676.3,964.3,678,967.8,681.8z M471.2,880.1
			c-1.7-9.3-9.7-15.1-18.3-13.2c-7.7,1.6-14.2,10.5-13,17.8c1.6,9.4,9.5,15.7,17.8,14.3C467.3,897.2,472.9,889.3,471.2,880.1z"/>
		<path class="st9" d="M298.9,900.3c9.4,3.6,19.5,4.8,29,7.7c3.9,1.2,6-0.1,7.2-3.9c1.9-6.1,4.3-12,6.2-18.1c1-3.3,3.3-4.4,6.2-3.8
			c5.8,1.1,11.5,2.7,17.3,4c4,0.9,5,3.1,3.9,7.1c-1.6,5.2-2.5,10.7-4,15.9c-1.1,3.8-0.7,6.1,3.9,6.6c9.1,1.1,18.1,2.5,27.1,3.9
			c3.9,0.6,5.2-0.8,5.3-4.7c0.2-5.9,1.3-11.8,1.6-17.7c0.4-7.7,6.1-4.4,9.7-4.7c3.4-0.3,6.9,0.2,6.6,5.5c-0.4,6.1,0.2,12.3-0.4,18.4
			c-0.4,4,0.8,5.5,4.5,5.8c17.3,1.2,34.6,2.2,51.9,1.9c4.5-0.1,6.5-1.5,5.8-6.6c-0.7-5.6-0.2-11.4-0.4-17.1
			c-0.2-4.5,2.2-6.5,6.2-6.1c3.7,0.3,9.4-2.7,10.2,4.3c0.8,6.8,1.6,13.6,1.8,20.4c0.1,3.4,0.4,5,4.4,4.6c5.9-0.6,11.8-0.7,17.7-0.8
			c5.2-0.1,6.4-2.4,5.5-7.5c-1.4-7.8-2.2-15.8-2.8-23.8c-0.7-8.2,1.7-10.6,9.8-11.6c5-0.6,7.9,1.3,8.6,6.3
			c1.3,9.3,3.9,18.3,3.9,27.8c0,4.6,1.8,6.7,6.8,5.7c16.2-3,32.4-5.8,48.6-8.6c4-0.7,4.6-2.4,3.5-6.2c-1.7-5.9-2.3-12.1-4.1-18
			c-1.7-5.7,1.6-7,5.8-8.4c9.2-3.2,11.4-2.1,13.3,7.2c0.9,4.3,2,8.5,2.4,12.8c0.5,5.6,2.8,7.6,8.4,5.8c10.2-3.3,20.5-6.2,30.8-9.2
			c3.6-1,4.7-3,3.4-6.6c-1.8-4.9-3.2-9.9-4.9-14.9c-1.5-4.5-1.5-8.2,4.5-8.9c0.2,0,0.4-0.1,0.7-0.2c19-6.1,14.7-9.2,22.7,11.2
			c3.6,9.3,3.1,9.2,12.4,6.6c9.9-2.8,18.9-8.1,28.7-11.1c4.5-1.4,4-4.6,2.7-7.7c-2.3-5.5-4.7-10.9-7.5-16.1c-2.2-4.1-1.1-6.6,3-7.9
			c3.9-1.3,8.1-6.1,11.8-0.1c3.3,5.4,6.1,11.2,8.9,16.9c1.5,3.1,3.3,4.9,6.9,3.1c7.5-3.8,15.1-7.6,22.6-11.3c3.7-1.8,4.2-4.2,2-7.7
			c-2.9-4.6-5.5-9.4-7.9-14.4c-2.5-5.2-2.2-9.9,3.3-13.6c13.6-9.3,19.8-11.8,30.6,9.6c3.1,6.2,5.1,7.2,10.4,3.2
			c3.1-2.4,6.5-4.2,9.8-6.3c7.5-5.5,14.8-11.2,22.5-16.3c4.1-2.7,3.5-5.5,1.7-8.6c-4.2-7.3-8.6-14.4-13-21.6
			c14.6-13.1,12.5-11.7,23.6,0.3c0.9,1,1.8,2,2.7,3.1c6.8,8.4,6.7,8.4,14.9,0.9c7.2-6.6,14.4-13.3,21.7-19.9c3.3-3,3.6-5-0.3-8
			c-5.6-4.2-10.8-9.1-16.1-13.7c-2.8-2.5-2.6-4.6,0.2-7.3c8.7-8.5,10.3-8.7,19.4-0.3c1.7,1.5,3.6,2.8,5.2,4.4
			c8.7,8.1,8.9,8.2,17.2-0.4c8-8.4,15.7-17,23.5-25.6c3.3-0.4,7.1-1.9,9.4,1.7c2.3,3.6-0.6,6.7-2.3,9.3c-8.8,13.7-20,25.5-30.9,37.4
			c-31.4,34.4-65.3,66.3-103.2,93.6c-41.9,30.2-87.2,53.9-135.6,71.8c-27,9.9-54.5,17.6-82.7,23.5c-43.5,9.2-87.3,12.3-131.7,11.7
			c-60.6-0.9-119.3-12.2-176.7-30.9c-19.5-6.4-39.1-12.8-57.5-21.7c-22.1-10.7-44.5-21.2-65.1-34.7c-8.8-5.8-8.7-5.9-1.8-14.1
			c2.7,0.5,5.2,1.4,7.6,2.7c9.3,4.7,18.6,9.4,28.4,12.9c1.9,0.7,4,2.4,5.3-0.2c3.6-7.2,9.3-12.8,13.6-19.4c0.9-0.3,1.7-0.5,2.6-0.8
			c2,0.3,4.1,0.3,6,0.9c3.7,1.1,5.2,3.2,2.9,7.1c-3.1,5.3-5.5,10.9-8.6,16.2c-1.7,2.9-0.3,4.5,1.9,5.4c9.5,3.8,19,7.6,28.6,10.9
			c3,1,4.9-1.6,6.1-4.3c2.2-4.5,2.9-9.6,6.2-13.6c1.8-2.1,2.5-6.3,6.4-4.7c4.5,1.7,11,0.6,12.4,7.5c-2,2.1-2.1,5-3,7.5
			C282,897.5,282,897.5,298.9,900.3z"/>
		<path class="st7" d="M187.8,734.7c7.4-17.5,16.9-33.8,27.1-49.7c21.7-34,46.9-64.9,78.1-90.8c30.5-25.3,64.5-44.5,101.5-58.4
			c2.3-0.9,4.5-2.1,6.8-3.2c1.6,0.8,7.3-1.3,3.2,3.8c-6,7.4-6,15.7-5.3,24.4c-1,0.9-2.1,1.8-3,2.7c-5.1,5.1-9,5.2-12.4-0.8
			c-2.9-5.1-6.9-5.3-11.5-4.6c-11.7,1.8-19,9.3-24.1,19.5c-1.8,4.1-1.4,8.8,1.2,11.7c4.5,5,1.5,7.7-1.8,10.6
			c-15,13.4-30.6,26.2-46.4,38.7c-23.6,18.8-46.9,37.9-70.4,56.8c-1.4,1.1-2.7,2.4-4.2,3.5c-7.4,5.5-16.1,9-20.3,18.6
			c-3.2,7.3-11.2,11.9-15.2,19.3C189.1,737.6,188.3,736.3,187.8,734.7z M285.5,636.7c11.1-4.3,20.6-11.1,27.1-21.3
			c3.4-5.4-0.8-11.2-7.3-10.6c-12,1.1-20.2,8.7-27.3,17.2c-2.1,2.5-4.1,7.4-1.4,11.4C278.5,636.5,281.5,638,285.5,636.7z"/>
		<path class="st0" d="M397.7,598.8c22.7-4.1,44.3,10.7,48.3,32.9c3.9,21.8-10.8,43.4-32.5,47.4c-21.8,4.1-44.4-11.4-48.5-33.3
			C361,624.2,375.9,602.7,397.7,598.8z M380.4,623.8c2.2,9.9,8.5,15.1,16.4,13.5c7.3-1.5,11.7-7.9,10.3-15.3
			c-1.4-7.5-8.4-12.2-15.7-10.5C384.8,612.9,379.4,619.1,380.4,623.8z"/>
		<path class="st11" d="M408,794.3c-16.7,2.8-28.2-1.3-38.2-9.8c-5.9-5-7.6-13.3-4.3-20.6c6.5-14.1,17.4-23.6,31.8-29.3
			c3.5-1.4,7.3-1.1,10.8-0.1c11,3.3,19.9,10,26.9,18.9c2.2,2.8,4,6.3,2.2,10.2C430.7,778.5,421.6,790.8,408,794.3z"/>
		<path class="st11" d="M703.8,741.8c-13.3,2.4-35.3-7.8-41.3-17.7c-2-3.4-2-7-0.9-10.5c2.4-7.4,5.8-14.2,10.5-20.5
			c5.2-7.1,12.2-9.1,20.4-7.9c12,1.8,23.1,6.5,31.7,15c9.6,9.5,10.3,16.4,2.6,26.4C720.5,734.7,712.1,740,703.8,741.8z"/>
		<path class="st8" d="M225.5,849.4c-4.2,6.7-10,12.3-13.6,19.4c-1.3,2.6-3.5,0.9-5.3,0.2c-9.8-3.6-19.1-8.2-28.4-12.9
			c-2.5-1.2-5-2.2-7.6-2.7c-5.6-6.3-14.1-7.5-21-11.5c-7.1-4-14.7-7-22-10.6c-2.2-1.1-4.5-2.3-5.2-5.1c8.2-4.3,17.7-3.8,26.2-7.2
			c2.3-0.9,5.9,0.3,8.6,1.4C180,830,202.7,839.7,225.5,849.4z"/>
		<path class="st9" d="M247.6,825.7c-1.7,0.3-3.4,0.7-5.1,1c-16.8-1.6-26.1-17-17.8-29.7c4.6-6.9,11.2-9.9,19.3-8.7
			c7.8,1.1,13.6,6.9,15.3,14.6c1.8,8.5-0.8,15.6-7.6,20.3C250.4,824.2,249,824.9,247.6,825.7z"/>
		<path class="st9" d="M226.5,738.7c9.6-1.7,18.5,4.4,20.1,13.9c1.5,8.9-5.4,18.1-14.9,19.7c-9.3,1.6-17.7-4.7-19.2-14.2
			C211.1,748.9,217.2,740.3,226.5,738.7z"/>
		<path class="st9" d="M841,655.4c-1.5,1.4-2.9,2.9-4.5,4.2c-6.1,4.7-13.2,5.3-19.1,1.7c-5.7-3.4-8.9-11-7.6-17.8
			c1.3-7.1,6.2-11.4,14.1-12.8c1.6-0.3,3.2-0.4,4.7-0.6C841.8,635.5,845.1,642.2,841,655.4z"/>
		<path class="st3" d="M534.4,814.6c17.7,0.5,35-1.9,51.6-8.4c21.1-8.2,36.7-22.6,47-42.6c3.2-6.1,5.3-12.6,5.3-19.6
			c0.1-7.7-3.9-14-9.9-16.5c-7.2-2.9-12.3,0.3-16.9,5.4c-6.4,7.1-12.7,14.3-21.5,18.7c3.9-6.8,10.7-10.9,15.8-16.6
			c1.4-1.6,3.3-3,4.7-4.7c7.2-8.3,21.8-9.2,27.1-0.9c3.8,6.1,4.4,13.5,3.9,20.9c-0.6,8.7-6.7,14.6-10,21.9
			c-6.8,15.3-20.7,23.7-33.5,32.5c-5,3.5-12.3,6.2-19.2,7.3c-2.5,0.4-5.1,0.9-7.7,2.2c3.2,1.5,7,0.8,6.8,6.3
			c-0.1,2.6,4.7,1.4,8.1,2.6c-3.1,1.5-3.8,4-4.4,6.6c-6.3-7.9-14.2-9.2-23.2-5.5c-0.5-4.8,5.3-2.3,6.9-6c-6.6,0.3-12.5-2.5-18.8-0.4
			C542.2,819.1,538,817.5,534.4,814.6z"/>
		<path class="st11" d="M867.4,689c1.6,8.4-3.9,16.6-12.4,18.4c-9.1,1.9-18.2-4.1-20.1-13.2c-1.7-8.4,4.3-17.3,12.8-18.8
			C857.2,673.8,865.6,679.6,867.4,689z"/>
		<path class="st9" d="M553.1,703.8c-8.7,1.7-16.4-3.5-18.3-12.3c-1.8-8.4,4.1-17.3,12.6-19c9.1-1.9,17.3,3.4,19.1,12.2
			C568.2,693.4,562.1,702.1,553.1,703.8z"/>
		<path class="st9" d="M558.5,824c9.1-3.7,16.9-2.4,23.2,5.5c0.3,0.9,0.6,1.8,0.9,2.7c0.3,1.7,0.5,3.5,0.8,5.2
			c-0.4,5.5-3.1,9.8-6.8,13.6c-4.5,2.4-9.4,2.6-14.4,2.9c-2.6-1.8-5.2-3.7-7.9-5.5c-0.5-0.4-1.1-0.8-1.6-1.2
			C550.4,838.5,551,830.4,558.5,824L558.5,824z"/>
		<path class="st11" d="M738.7,741.1c7.8-1.4,14.2,3.2,15.8,11.5c1.3,6.7-4.6,14.4-12.1,15.7c-7.3,1.3-13.6-3.6-15-11.5
			C726,748.8,730.5,742.5,738.7,741.1z"/>
		<path class="st11" d="M461.7,836c-7.1,1.2-13.3-3.4-14.6-10.8c-1.2-6.8,3.9-13.8,10.8-15c7.4-1.2,14,3.6,15.2,11.1
			C474.3,829.4,470.4,834.5,461.7,836z"/>
		<path class="st11" d="M285.2,723.1c-3.2,6.4-8.3,7.9-17.5,5.1c0-3.2-2.2-5.3-3.6-7.9c-3.2-5.9-0.3-13.4,6.2-16.9
			c4-2.1,9.8,1.4,13.7,5.2C289.2,713.8,284,718.5,285.2,723.1z"/>
		<path class="st11" d="M342,796.2c6.8-1.2,12.4,2.4,13.7,9.1c1.3,6.6-3.3,13.8-9.8,15.1c-6.4,1.3-13.1-3.3-14.3-9.7
			C330.4,803.9,335,797.5,342,796.2z"/>
		<path class="st11" d="M782.2,704.3c1.3,7-3.4,14.1-10.3,15.4c-6,1.2-12.4-3.3-13.7-9.6c-1.3-6.5,3-13,9.6-14.4
			C774,694.4,781.2,698.7,782.2,704.3z"/>
		<path class="st11" d="M327.9,723.2c-6.1,1-12.6-3.2-13.6-8.8c-1.1-6.7,2.8-12.7,9.1-13.9c6.8-1.3,12.6,2.6,13.6,9.2
			C337.8,715.5,333.3,722.3,327.9,723.2z"/>
		<path class="st11" d="M688.3,794.7c6.6-1.2,11.9,2.4,13,8.8c1.1,6.7-2.8,12.1-9.6,13.3c-6.1,1.1-11.9-2.5-13.1-8.1
			C677.2,801.9,681.4,796,688.3,794.7z"/>
		<path class="st3" d="M348.1,577.5c5-10.2,12.3-17.7,24.1-19.5c4.6-0.7,8.6-0.5,11.5,4.6c3.4,6.1,7.3,6,12.4,0.8c1-1,2-1.8,3-2.7
			c0.2,6.8-3.3,10.1-10.1,9.1c-2.6-0.4-5-1.9-7.9-1.2c-1.7,0.4-2.4-0.6-1.7-2.4c2-5.3-1.2-5.3-4.9-4.6c-3.8,0.7-7.6,1.4-11.4,2.3
			c-0.5,0.1-0.8,0.8-1.7,1.6c2.8,1.5,5.3,0.5,7.5-0.1c5-1.4,6.5,0.8,7,5.3c1.1,9.7-8.4,18.5-17.5,15.9c-2.9-0.9-4-4.2-5.6-6.4
			C351.5,578.1,350.5,576.9,348.1,577.5z M364.8,568.6c-5.6,1-10.6,6.3-9.3,10.1c1.3,3.8,4,5.6,8.4,4.6c5.1-1.2,9.4-6.2,8.3-10.5
			C371.1,568.8,368.4,567.5,364.8,568.6z"/>
		<path class="st11" d="M303.5,681.8c-4.1,0.7-9.4-3.1-10.2-7.3c-0.8-4.5,3.1-9.8,7.8-10.4c5.1-0.6,9.1,1.3,10.4,6.6
			C312.6,675.3,308.3,681,303.5,681.8z"/>
		<path class="st10" d="M773.5,655.2c5.7-0.7,6,3.8,6.9,7.5c1.4,5.8-0.7,10.9-5.3,13.8c-5,3.2-10.9,3.4-15.9-1
			c-5-4.4-5.5-9.8-3.2-15.6c2.2-5.4,8.5-8.5,14.1-7.4C771.7,652.8,773.3,653.2,773.5,655.2c-1.6-0.1-3.2-0.2-4.7-0.3
			c-6.1-0.3-8.8,4.4-9.9,8.7c-1.4,5.3,0.9,9.9,6.8,12.5c4.9,2.2,7.3-0.5,9.8-3.4c3.9-4.4,3.6-9.1,0-13.4
			C774.5,658,773.7,656.9,773.5,655.2z"/>
		<path class="st7" d="M421.8,553.4c-4,0.4-7.2-0.5-7.9-5.2c-0.8-5.5,3-7,7.2-7.8c3.6-0.7,7.6-1.2,8.2,4.2
			C430,550,426.1,551.9,421.8,553.4z"/>
		<path class="st6" d="M896,693.2c-2.8,0.6-5.5,1.1-8.3,1.7c-5.9-1.1-8.1-5.3-8.7-10.7c-0.4-4.4,2.1-7.6,5.5-9.5
			c3.8-2.1,7.9-1.3,11.5,1.4c4.2,3.1,4.3,7.2,2.6,11.5C897.9,689.6,896.9,691.3,896,693.2z M895.8,683.9c-1.1-5.3-3.3-7.4-8-6.1
			c-4.2,1.1-6.3,3.7-5.7,7.9c0.6,4.3,3.5,6.4,7.8,5.7C894.5,690.6,896.3,687.5,895.8,683.9z"/>
		<path class="st10" d="M285.2,723.1c-1.2-4.7,4-9.4-1.1-14.4c-3.9-3.8-9.7-7.3-13.7-5.2c-6.6,3.5-9.4,11-6.2,16.9
			c1.4,2.6,3.6,4.7,3.6,7.9c-6.9-4.9-9.5-12.2-6.7-18.7c2.5-5.8,9.1-9.4,15.7-8.6c6.5,0.8,11.8,6.9,12.5,14.2
			C289.4,718.7,288.5,721.5,285.2,723.1z"/>
		<path class="st11" d="M297.2,768.7c-0.6,3.9-2.3,6.8-6.5,7.6c-4.8,0.9-6.9-2.4-7.5-6c-0.7-4,2.2-5.9,6.2-6.5
			C293.6,763,295.7,765.1,297.2,768.7z"/>
		<path class="st6" d="M654.3,784.4c3.3-0.2,5.8,1.1,6.3,4.6c0.5,3.7-2,6.3-5.2,7c-3.4,0.7-5.5-2.2-6.1-5.1
			C648.6,787.4,651.2,785.5,654.3,784.4z"/>
		<path class="st6" d="M526,600.9c-0.3,3.2-1.9,5.8-5.4,6.8c-3.4,1-5.3-1.1-6-4c-0.9-3.4,0.9-5.7,4.2-6.8
			C522.3,595.8,524.4,597.6,526,600.9z"/>
		<path class="st3" d="M841,655.4c4-13.2,0.8-19.9-12.4-25.4c8.5-1.4,13.1,1.4,14.4,9.6c0.6,3.8,2.1,7.3,2.2,11.2
			C845.4,654.5,844,655.4,841,655.4z"/>
		<path class="st3" d="M558.5,824c-7.6,6.4-8.1,14.5-5.6,23.3C546.3,833.2,549.2,826,558.5,824z"/>
		<path class="st8" d="M369.5,813.9c0.2,2.1-0.5,4.3-2.9,5.1c-1.9,0.6-2.8-1-3.2-2.6c-0.6-2.3,0.2-4,2.5-4.7
			C367.7,811.1,369,811.6,369.5,813.9z"/>
		<path class="st3" d="M187.8,734.7c0.6,1.6,1.3,2.9,3.4,2.1c-0.7,4.1-2,7.7-7.3,6.8C184.5,740.3,185.6,737.3,187.8,734.7z"/>
		<path class="st3" d="M549.6,821.9c-3.5,1.9-6.5,2.4-9.8,1.3C542.5,821.6,544.9,817.9,549.6,821.9z"/>
		<path class="st3" d="M554.5,848.5c2.6,1.8,5.2,3.7,7.9,5.5c-1.9,2.1-4.4,1.1-6.7,1.1C555.3,852.9,554.9,850.7,554.5,848.5z"/>
		<path class="st3" d="M600.9,812.7c-3.2,1.6-5.7,2.4-10.5,0.8C594.8,811.9,597.2,810.3,600.9,812.7z"/>
		<path class="st3" d="M583.5,837.5c-0.3-1.7-0.5-3.5-0.8-5.2C584.3,833.8,584.7,835.5,583.5,837.5z"/>
		<path class="st0" d="M497.4,255.5c-10.4,1.9-21.9-6.3-23.7-17c-2-11.4,5.6-22.3,16.9-24.3c11-1.9,22.6,6.5,24.6,17.8
			C516.9,242,508.2,253.5,497.4,255.5z"/>
		<path class="st0" d="M405.8,251c-2.2-12,4.8-22.3,16.4-24.3c11.2-2,22.3,5.9,24.1,17.2c1.8,10.9-6.9,22.3-18.5,24.1
			C417.7,269.7,407.8,262.1,405.8,251z"/>
		<path class="st0" d="M481.8,316.2c-2.8-13.7-2.7-13.3,10.7-17.3c5.7-1.7,7.2-0.1,7.6,5.2c0.2,3.4,1.3,6.7,2,10.1
			c1.9,8.7-5,17.1-14.1,17.6c-2.8,0.2-3.6-1.1-4-3.4C483.3,324.2,482.5,320.2,481.8,316.2z"/>
		<path class="st0" d="M466.8,319.9c0.5,2.7,1,5.4,1.5,8.1c1.2,7.5-0.1,9.2-7.7,8.2c-9.3-1.3-13.1-3.6-13.6-12.2
			c0-0.7-0.2-1.4-0.3-2c-2.5-15.2-2.4-15,12.8-16.5c4.3-0.4,5.7,1,6,5c0.2,3.2,1.1,6.3,1.6,9.4C467,319.8,466.9,319.8,466.8,319.9z"
			/>
		<path class="st0" d="M468.2,281.7c-0.9,0.2-1.8,0.3-2.7,0.5c-12.2,1.9-12.4,1.7-9-10c1.6-5.4,2.7-14.3,6.4-14.8
			c5-0.7,8.5,7,12.1,11.4C483.2,278.6,482.7,279.5,468.2,281.7z"/>
		<path class="st10" d="M836.4,772.3c4.3,7.2,8.8,14.3,13,21.6c1.8,3.2,2.4,6-1.7,8.6c-7.7,5.1-15,10.8-22.5,16.3
			c-1.8-7.6-8.9-11.2-12.8-17.4c-5.5-8.7-5.9-9.1,2.5-14.7C822.1,782,829.3,777.1,836.4,772.3z"/>
		<path class="st9" d="M471.2,880.1c1.7,9.3-3.9,17.1-13.5,18.8c-8.2,1.4-16.2-4.9-17.8-14.3c-1.2-7.2,5.3-16.1,13-17.8
			C461.5,865,469.4,870.8,471.2,880.1z"/>
		<path class="st6" d="M298.9,900.3c-16.8-2.8-16.9-2.8-11.7-18.8c0.8-2.6,1-5.4,3-7.5c2,5.1,0,10.2-2.2,14.2
			c-2.9,5.5-0.3,6.3,3.9,7.9C294.3,897,298.8,895.1,298.9,900.3z"/>
		<path class="st3" d="M285.5,636.7c-4,1.3-7-0.2-9-3.3c-2.6-4-0.7-8.9,1.4-11.4c7.1-8.5,15.4-16.1,27.3-17.2
			c6.5-0.6,10.7,5.2,7.3,10.6C306.1,625.6,296.7,632.4,285.5,636.7z"/>
		<path class="st4" d="M380.4,623.8c-1-4.7,4.4-10.8,10.9-12.3c7.3-1.6,14.3,3.1,15.7,10.5c1.4,7.3-2.9,13.8-10.3,15.3
			C388.9,638.9,382.6,633.7,380.4,623.8z"/>
		<path class="st7" d="M364.8,568.6c3.6-1.1,6.3,0.2,7.4,4.2c1.1,4.3-3.2,9.3-8.3,10.5c-4.4,1-7.2-0.8-8.4-4.6
			C354.2,574.9,359.2,569.7,364.8,568.6z"/>
		<path class="st11" d="M773.5,655.2c0.1,1.6,0.9,2.8,2,4.1c3.6,4.4,3.8,9.1,0,13.4c-2.6,2.9-4.9,5.5-9.8,3.4
			c-5.9-2.6-8.2-7.2-6.8-12.5c1.1-4.3,3.9-9,9.9-8.7C770.4,655,771.9,655.1,773.5,655.2C773.5,655.2,773.5,655.2,773.5,655.2z"/>
		<path class="st11" d="M895.8,683.9c0.5,3.6-1.3,6.7-5.9,7.5c-4.3,0.7-7.1-1.4-7.8-5.7c-0.6-4.2,1.5-6.8,5.7-7.9
			C892.5,676.6,894.7,678.7,895.8,683.9z"/>
		<g>
			<path class="st0" d="M563.4,724.8c11.3-2.5,21.2-8.3,30.8-14.4c12-7.7,20.8-5.7,27.5,6.9c5,9.3,5.9,19.7,5.5,30.1
				c-1.3,35.8-22.5,65.2-55.3,74.7c-30.2,8.7-55.6-1-76.2-23.6c-12.7-13.9-20.7-30.4-21.5-49.7c-0.7-16.2,9.1-24.3,24.6-20.7
				c10,2.3,20.2,4.1,30.6,2.8C541.1,731,552.5,729.2,563.4,724.8z M562.6,803.1c9-0.9,17.3-5.2,24.5-11.8
				c5.2-4.8,10.1-10.4,7.4-18.1c-2.6-7.4-9.3-10.9-16.3-11.2c-17.2-0.8-33.9,2.7-49.4,10.1c-10.5,5-10.9,17.4-1.7,24.5
				C537.5,804.6,549.3,806,562.6,803.1z"/>
			<path class="st12" d="M562.6,803.1c-13.3,2.9-25.1,1.5-35.5-6.6c-9.2-7.1-8.8-19.5,1.7-24.5c15.5-7.4,32.2-10.9,49.4-10.1
				c7,0.3,13.7,3.9,16.3,11.2c2.7,7.8-2.1,13.3-7.4,18.1C579.9,797.8,571.6,802.1,562.6,803.1z"/>
		</g>
		<g>
			<path class="st0" d="M362.7,644.7c-3.2-22,12.8-45.2,36.1-48.6c24.4-3.5,45.7,12.5,49.6,37.8c3.5,22.7-12.4,44.2-35.4,47.9
				C388.8,685.7,366.6,669.4,362.7,644.7z M385,629.9c1.3,7.1,8.1,12.1,15,10.8c6.7-1.2,11.7-8.5,10.5-15.4
				c-1.2-6.6-8.1-11.4-14.9-10.3C388.3,616.2,383.7,622.6,385,629.9z M424.1,665.8c4.6-0.9,8.4-5.9,7.7-10.2
				c-0.7-4.3-6.2-7.9-10.7-6.9c-4.3,0.9-7.5,5.8-6.7,10.2C415.2,663.7,419.3,666.6,424.1,665.8z"/>
			<path class="st13" d="M385,629.9c-1.3-7.3,3.3-13.7,10.6-14.9c6.8-1.1,13.7,3.7,14.9,10.3c1.2,6.9-3.7,14.2-10.5,15.4
				C393.2,642,386.3,637,385,629.9z"/>
			<path class="st14" d="M424.1,665.8c-4.8,0.9-8.9-2.1-9.7-6.9c-0.8-4.5,2.4-9.3,6.7-10.2c4.5-1,10.1,2.6,10.7,6.9
				C432.5,659.9,428.7,664.9,424.1,665.8z"/>
		</g>
	</g>
</g>
</svg>
