<?xml version="1.0" encoding="utf-8"?>
<!-- Generator: Adobe Illustrator 24.0.2, SVG Export Plug-In . SVG Version: 6.00 Build 0)  -->
<svg version="1.1" xmlns="http://www.w3.org/2000/svg" xmlns:xlink="http://www.w3.org/1999/xlink" x="0px" y="0px"
	 viewBox="0 0 81.82 129.08" style="enable-background:new 0 0 81.82 129.08;" xml:space="preserve">
<style type="text/css">
	.st0{fill:#6C67CF;}
	.st1{fill:#FFFFFF;}
</style>
<g id="Background">
</g>
<g id="Object">
	<g>
		<g>
			<path d="M40.15,63.36c-17.28,0-31.35-14.06-31.35-31.35c0-17.28,14.06-31.35,31.35-31.35c17.28,0,31.35,14.06,31.35,31.35
				C71.5,49.29,57.44,63.36,40.15,63.36z M40.15,4.21c-15.33,0-27.81,12.47-27.81,27.8c0,15.33,12.47,27.81,27.81,27.81
				s27.8-12.47,27.8-27.81C67.96,16.68,55.48,4.21,40.15,4.21z"/>
			<path d="M40.15,64.02c-17.65,0-32.01-14.36-32.01-32.01C8.14,14.36,22.5,0,40.15,0C57.8,0,72.16,14.36,72.16,32.01
				C72.16,49.66,57.8,64.02,40.15,64.02z M40.15,1.33c-16.92,0-30.68,13.76-30.68,30.68c0,16.92,13.76,30.68,30.68,30.68
				c16.92,0,30.68-13.76,30.68-30.68C70.84,15.09,57.07,1.33,40.15,1.33z M40.15,60.48c-15.7,0-28.47-12.77-28.47-28.47
				c0-15.7,12.77-28.47,28.47-28.47s28.47,12.77,28.47,28.47C68.62,47.71,55.85,60.48,40.15,60.48z M40.15,4.87
				c-14.97,0-27.14,12.18-27.14,27.14c0,14.97,12.17,27.14,27.14,27.14c14.96,0,27.14-12.18,27.14-27.14
				C67.29,17.05,55.12,4.87,40.15,4.87z"/>
		</g>
		<g>
			<path d="M79.39,128.42H2.43c-0.98,0-1.77-0.79-1.77-1.77v-26.58c0-22.19,18.05-40.25,40.25-40.25
				c22.19,0,40.25,18.05,40.25,40.25v26.58C81.16,127.62,80.36,128.42,79.39,128.42z M4.21,124.87h73.41v-24.81
				c0-20.24-16.47-36.7-36.71-36.7c-20.24,0-36.7,16.47-36.7,36.7V124.87z"/>
			<path d="M79.39,129.08H2.43c-1.34,0-2.43-1.09-2.43-2.44v-26.58C0,77.5,18.35,59.15,40.91,59.15s40.91,18.35,40.91,40.91v26.58
				C81.82,127.99,80.73,129.08,79.39,129.08z M40.91,60.48c-21.83,0-39.58,17.76-39.58,39.58v26.58c0,0.61,0.5,1.11,1.11,1.11h76.95
				c0.61,0,1.11-0.5,1.11-1.11v-26.58C80.49,78.24,62.74,60.48,40.91,60.48z M77.61,125.54H4.21c-0.37,0-0.66-0.3-0.66-0.66v-24.81
				c0-20.61,16.76-37.37,37.37-37.37c20.61,0,37.37,16.76,37.37,37.37v24.81C78.28,125.24,77.98,125.54,77.61,125.54z M4.87,124.21
				h72.08v-24.15c0-19.87-16.17-36.04-36.04-36.04S4.87,80.19,4.87,100.06V124.21z"/>
		</g>
	</g>
</g>
</svg>
