<?xml version="1.0" encoding="utf-8"?>
<!-- Generator: Adobe Illustrator 24.0.2, SVG Export Plug-In . SVG Version: 6.00 Build 0)  -->
<svg version="1.1" xmlns="http://www.w3.org/2000/svg" xmlns:xlink="http://www.w3.org/1999/xlink" x="0px" y="0px"
	 viewBox="0 0 133.29 117.32" style="enable-background:new 0 0 133.29 117.32;" xml:space="preserve">
<style type="text/css">
	.st0{fill:#6C67CF;}
	.st1{fill:#FFFFFF;}
</style>
<g id="Background">
</g>
<g id="Object">
	<g>
		<g>
			<path d="M130.85,33.42h-86.7L37.82,2.08c-0.17-0.83-0.89-1.42-1.74-1.42H2.44c-0.98,0-1.77,0.79-1.77,1.77
				c0,0.98,0.79,1.77,1.77,1.77h32.2l15.62,77.21v33.47c0,0.98,0.79,1.77,1.77,1.77h46.93c0.98,0,1.77-0.79,1.77-1.77
				c0-0.98-0.79-1.77-1.77-1.77H53.79v-30.1h47.82h0.49c0.61,0,1.18-0.31,1.5-0.83l28.75-46.04c0.34-0.55,0.36-1.23,0.05-1.8
				C132.09,33.77,131.5,33.42,130.85,33.42z M99.84,48.03H75.92V36.97h23.91V48.03z M99.84,65.74H75.92V51.58h23.91V65.74z
				 M72.38,36.97v11.07H47.11l-2.24-11.07H72.38z M72.38,51.58v14.17H51.65c-0.34,0-0.63,0.12-0.9,0.28l-2.92-14.45H72.38z
				 M53.47,79.47L51.4,69.24c0.09,0.01,0.16,0.05,0.25,0.05h20.73v9.85c0,0.12,0.05,0.22,0.07,0.33H53.47z M75.92,79.14v-9.85h23.91
				v10.18H75.86C75.88,79.36,75.92,79.25,75.92,79.14z M103.38,75.85v-6.57h4.1L103.38,75.85z M109.69,65.74h-6.31V51.58h15.16
				L109.69,65.74z M120.72,48.08c-0.08-0.01-0.16-0.05-0.24-0.05h-17.1V36.97h24.28L120.72,48.08z"/>
			<path d="M98.95,117.32H52.02c-1.34,0-2.44-1.09-2.44-2.44V81.42L34.09,4.87H2.44C1.09,4.87,0,3.78,0,2.43C0,1.09,1.09,0,2.44,0
				h33.65c1.15,0,2.16,0.82,2.39,1.95l6.23,30.81h86.16c0.89,0,1.7,0.48,2.13,1.25c0.43,0.77,0.4,1.72-0.06,2.47l-28.75,46.04
				c-0.45,0.72-1.22,1.15-2.07,1.15H54.46v28.78h44.49c1.34,0,2.43,1.09,2.43,2.43C101.38,116.23,100.29,117.32,98.95,117.32z
				 M2.44,1.33c-0.61,0-1.11,0.5-1.11,1.11c0,0.61,0.5,1.11,1.11,1.11h32.2c0.32,0,0.59,0.22,0.65,0.53L50.9,81.28l0.01,33.6
				c0,0.61,0.5,1.11,1.11,1.11h46.93c0.61,0,1.11-0.5,1.11-1.11c0-0.61-0.5-1.11-1.11-1.11H53.79c-0.37,0-0.66-0.3-0.66-0.66v-30.1
				c0-0.37,0.3-0.66,0.66-0.66h48.31c0.38,0,0.74-0.2,0.94-0.52l28.75-46.04c0.21-0.34,0.23-0.77,0.03-1.12
				c-0.19-0.35-0.57-0.57-0.97-0.57h-86.7c-0.32,0-0.59-0.22-0.65-0.53L37.17,2.22c-0.11-0.51-0.56-0.89-1.09-0.89H2.44z
				 M99.84,80.13H75.85c-0.2,0-0.39-0.09-0.51-0.24c-0.13-0.15-0.18-0.36-0.14-0.55l0.65-0.12l-0.59-0.1l0,0.02v-9.85
				c0-0.37,0.3-0.66,0.66-0.66h23.91c0.37,0,0.66,0.3,0.66,0.66v10.18C100.5,79.84,100.2,80.13,99.84,80.13z M76.59,78.8h22.59
				v-8.85H76.59V78.8z M72.45,80.13H53.47c-0.32,0-0.59-0.22-0.65-0.53l-2.07-10.23c-0.04-0.21,0.02-0.43,0.17-0.59
				c0.15-0.16,0.36-0.24,0.58-0.2c0.03,0,0.16,0.03,0.19,0.04l20.7,0c0.37,0,0.66,0.3,0.66,0.66v9.85c0,0.02,0.05,0.19,0.05,0.2
				c0.04,0.19-0.01,0.4-0.14,0.55C72.84,80.04,72.65,80.13,72.45,80.13z M54.01,78.8h17.7v-8.85h-19.5L54.01,78.8z M103.38,76.52
				c-0.06,0-0.12-0.01-0.18-0.03c-0.29-0.08-0.48-0.34-0.48-0.64v-6.56c0-0.37,0.3-0.66,0.66-0.66h4.1c0.24,0,0.46,0.13,0.58,0.34
				c0.12,0.21,0.11,0.47-0.02,0.67l-4.1,6.57C103.82,76.4,103.6,76.52,103.38,76.52z M104.04,69.95v3.58l2.24-3.58H104.04z
				 M50.75,66.69c-0.09,0-0.18-0.02-0.27-0.06c-0.2-0.09-0.34-0.26-0.38-0.48l-2.92-14.45c-0.04-0.2,0.01-0.4,0.14-0.55
				c0.13-0.15,0.31-0.24,0.51-0.24h24.55c0.37,0,0.66,0.3,0.66,0.66v14.17c0,0.37-0.3,0.66-0.66,0.66H51.65
				c-0.17,0-0.35,0.06-0.56,0.19C50.99,66.66,50.87,66.69,50.75,66.69z M48.64,52.24l2.6,12.88c0.13-0.03,0.27-0.04,0.4-0.04h20.07
				V52.24H48.64z M109.69,66.41h-6.31c-0.37,0-0.66-0.3-0.66-0.66V51.58c0-0.37,0.3-0.66,0.66-0.66h15.16
				c0.24,0,0.46,0.13,0.58,0.34c0.12,0.21,0.11,0.47-0.02,0.67l-8.85,14.17C110.13,66.29,109.92,66.41,109.69,66.41z M104.04,65.08
				h5.28l8.02-12.84h-13.3V65.08z M99.84,66.41H75.92c-0.37,0-0.66-0.3-0.66-0.66V51.58c0-0.37,0.3-0.66,0.66-0.66h23.91
				c0.37,0,0.66,0.3,0.66,0.66v14.17C100.5,66.11,100.2,66.41,99.84,66.41z M76.59,65.08h22.59V52.24H76.59V65.08z M120.72,48.75
				c-0.03,0-0.06,0-0.08-0.01c-0.03,0-0.17-0.03-0.2-0.04h-17.06c-0.37,0-0.66-0.3-0.66-0.66V36.97c0-0.37,0.3-0.66,0.66-0.66h24.28
				c0.24,0,0.46,0.13,0.58,0.34c0.12,0.21,0.11,0.47-0.02,0.67l-6.94,11.11C121.16,48.63,120.95,48.75,120.72,48.75z M104.04,47.37
				h16.34l6.08-9.74h-22.42V47.37z M99.84,48.7H75.92c-0.37,0-0.66-0.3-0.66-0.66V36.97c0-0.37,0.3-0.66,0.66-0.66h23.91
				c0.37,0,0.66,0.3,0.66,0.66v11.07C100.5,48.4,100.2,48.7,99.84,48.7z M76.59,47.37h22.59v-9.74H76.59V47.37z M72.38,48.7H47.11
				c-0.32,0-0.59-0.22-0.65-0.53L44.22,37.1c-0.04-0.2,0.01-0.4,0.14-0.55s0.31-0.24,0.51-0.24h27.51c0.37,0,0.66,0.3,0.66,0.66
				v11.07C73.04,48.4,72.75,48.7,72.38,48.7z M47.65,47.37h24.06v-9.74H45.68L47.65,47.37z"/>
		</g>
	</g>
</g>
</svg>
