<?xml version="1.0" encoding="utf-8"?>
<!-- Generator: Adobe Illustrator 24.0.2, SVG Export Plug-In . SVG Version: 6.00 Build 0)  -->
<svg version="1.1" xmlns="http://www.w3.org/2000/svg" xmlns:xlink="http://www.w3.org/1999/xlink" x="0px" y="0px"
	 viewBox="0 0 114.95 131.78" style="enable-background:new 0 0 114.95 131.78;" xml:space="preserve">
<style type="text/css">
	.st0{fill:#6C67CF;}
	.st1{fill:#FFFFFF;}
</style>
<g id="Background">
</g>
<g id="Object">
	<g>
		<g>
			<path d="M50.17,99.68c-27.3,0-49.51-22.21-49.51-49.51c0-27.3,22.21-49.51,49.51-49.51c27.3,0,49.51,22.21,49.51,49.51
				C99.68,77.47,77.47,99.68,50.17,99.68z M50.17,4.21c-25.34,0-45.96,20.62-45.96,45.97c0,25.35,20.62,45.97,45.96,45.97
				c25.35,0,45.97-20.62,45.97-45.97C96.14,24.83,75.52,4.21,50.17,4.21z"/>
			<path d="M50.17,100.34C22.51,100.34,0,77.84,0,50.17C0,22.51,22.51,0,50.17,0c27.67,0,50.17,22.51,50.17,50.17
				C100.34,77.84,77.83,100.34,50.17,100.34z M50.17,1.33c-26.93,0-48.84,21.91-48.84,48.84c0,26.93,21.91,48.84,48.84,48.84
				S99.01,77.1,99.01,50.17C99.01,23.24,77.1,1.33,50.17,1.33z M50.17,96.8c-25.71,0-46.63-20.92-46.63-46.63
				c0-25.71,20.92-46.63,46.63-46.63c25.71,0,46.63,20.92,46.63,46.63C96.8,75.88,75.88,96.8,50.17,96.8z M50.17,4.87
				c-24.98,0-45.3,20.32-45.3,45.3c0,24.98,20.32,45.3,45.3,45.3c24.98,0,45.3-20.32,45.3-45.3C95.47,25.19,75.15,4.87,50.17,4.87z"
				/>
		</g>
		<g>
			<path d="M112.52,131.12c-0.5,0-1-0.21-1.35-0.62L76.74,90.03c-0.63-0.75-0.54-1.86,0.2-2.5c0.75-0.63,1.86-0.54,2.5,0.2
				l34.43,40.47c0.63,0.75,0.54,1.86-0.2,2.5C113.33,130.98,112.92,131.12,112.52,131.12z"/>
			<path d="M112.52,131.78c-0.71,0-1.39-0.31-1.85-0.86L76.23,90.46c-0.87-1.02-0.75-2.56,0.28-3.43c1.03-0.86,2.56-0.74,3.43,0.28
				l34.43,40.47c0.87,1.02,0.75,2.56-0.28,3.43C113.65,131.58,113.09,131.78,112.52,131.78z M78.09,87.78
				c-0.25,0-0.51,0.09-0.72,0.26c-0.46,0.39-0.52,1.09-0.12,1.56l34.43,40.47c0.38,0.45,1.11,0.51,1.56,0.12
				c0.46-0.39,0.52-1.09,0.12-1.56L78.93,88.16C78.71,87.91,78.4,87.78,78.09,87.78z"/>
		</g>
	</g>
</g>
</svg>
